<svg
  xmlns="http://www.w3.org/2000/svg"
  viewBox="0 0 440 202"
  fill="none"
  preserveAspectRatio="xMidYMid meet"
>
  <defs>
    <linearGradient
      id="paint0_linear_37_1939"
      x1="-0.000278152"
      y1="32.7092"
      x2="439.548"
      y2="241.263"
      gradientUnits="userSpaceOnUse"
    >
      <stop stop-color="white" />
      <stop offset="1" stop-color="white" stop-opacity="0" />
    </linearGradient>
  </defs>

  <path
    fill-rule="evenodd"
    clip-rule="evenodd"
    d="M67.1516 28.654C64.6884 12.4314 50.68 -1.84771e-05 33.7678 -1.7738e-05C15.1183 -1.6923e-05 -0.000183766 15.1167 -0.000184581 33.7642C-0.000185396 52.4117 15.1183 67.5284 33.7678 67.5284C50.6797 67.5284 64.6879 55.0974 67.1515 38.8753L290.65 38.8753L290.65 201.875L439.566 201.875L439.566 191.654L300.872 191.654L300.872 28.654L67.1516 28.654ZM33.7678 10.2213C46.7717 10.2213 57.3134 20.7618 57.3134 33.7642C57.3134 46.7666 46.7717 57.3071 33.7679 57.3071C20.764 57.3071 10.2223 46.7666 10.2223 33.7642C10.2223 20.7618 20.764 10.2213 33.7678 10.2213Z"
    fill="url(#paint0_linear_37_1939)"
    fill-opacity="0.53"
  />
</svg>
