<svg
  xmlns="http://www.w3.org/2000/svg"
  viewBox="0 0 440 202"
  fill="none"
  preserveAspectRatio="xMidYMid meet"
>
  <defs>
    <linearGradient
      id="paint0_linear_37_1937"
      x1="439.567"
      y1="169.166"
      x2="0.01818"
      y2="-39.3877"
      gradientUnits="userSpaceOnUse"
    >
      <stop stop-color="white" />
      <stop offset="1" stop-color="white" stop-opacity="0" />
    </linearGradient>
  </defs>

  <path
    fill-rule="evenodd"
    clip-rule="evenodd"
    d="M372.415 173.221C374.878 189.444 388.886 201.875 405.799 201.875C424.448 201.875 439.567 186.758 439.567 168.111C439.567 149.463 424.448 134.347 405.799 134.347C388.887 134.347 374.879 146.778 372.415 163L148.917 163L148.916 8.74944e-06L-8.82424e-06 3.05176e-05L-7.48377e-06 10.2214L138.694 10.2213L138.694 173.221L372.415 173.221ZM405.799 191.654C392.795 191.654 382.253 181.113 382.253 168.111C382.253 155.108 392.795 144.568 405.799 144.568C418.802 144.568 429.344 155.108 429.344 168.111C429.344 181.113 418.802 191.654 405.799 191.654Z"
    fill="url(#paint0_linear_37_1937)"
    fill-opacity="0.53"
  />
</svg>
