<svg xmlns="http://www.w3.org/2000/svg" width="22" height="38" viewBox="0 0 22 38" fill="none">
  <path d="M18.5368 10.5782L11.7176 2.80078L4.68359 10.5782" stroke="#0D6CC1"/>
  <path d="M4.6847 27.4073L11.5032 34.75L18.5371 27.4073" stroke="#0D6CC1"/>
  <path d="M4.22266 10.5781L11.3743 18.8251" stroke="#0D6CC1" stroke-width="0.8"/>
  <path d="M10.1914 18.0361C10.1914 18.0361 16.3131 24.9946 18.373 27.4075" stroke="#0D6CC1" stroke-width="0.8"/>
  <path d="M10.9997 6.82759C12.8851 6.82759 14.4135 5.29918 14.4135 3.41379C14.4135 1.52841 12.8851 0 10.9997 0C9.11434 0 7.58594 1.52841 7.58594 3.41379C7.58594 5.29918 9.11434 6.82759 10.9997 6.82759Z" fill="white"/>
  <path d="M18.5857 13.6552C20.4711 13.6552 21.9995 12.1268 21.9995 10.2414C21.9995 8.35604 20.4711 6.82764 18.5857 6.82764C16.7003 6.82764 15.1719 8.35604 15.1719 10.2414C15.1719 12.1268 16.7003 13.6552 18.5857 13.6552Z" fill="#0D6CC1"/>
  <path d="M4.17194 12.8966C5.21938 12.8966 6.06849 12.0475 6.06849 11.0001C6.06849 9.95263 5.21938 9.10352 4.17194 9.10352C3.12451 9.10352 2.27539 9.95263 2.27539 11.0001C2.27539 12.0475 3.12451 12.8966 4.17194 12.8966Z" fill="#0D6CC1"/>
  <path d="M11.0003 30.3448C9.11488 30.3448 7.58648 31.8732 7.58648 33.7586C7.58648 35.644 9.11488 37.1724 11.0003 37.1724C12.8857 37.1724 14.4141 35.644 14.4141 33.7586C14.4141 31.8732 12.8857 30.3448 11.0003 30.3448Z" fill="white"/>
  <path d="M3.41433 22.7586C1.52895 22.7586 0.000538826 24.287 0.000538826 26.1724C0.000538826 28.0578 1.52895 29.5862 3.41433 29.5862C5.29972 29.5862 6.82812 28.0578 6.82812 26.1724C6.82812 24.287 5.29972 22.7586 3.41433 22.7586Z" fill="#0D6CC1"/>
  <path d="M18.5859 25.0345C17.5384 25.0345 16.6893 25.8836 16.6893 26.9311C16.6893 27.9785 17.5384 28.8276 18.5859 28.8276C19.6333 28.8276 20.4824 27.9785 20.4824 26.9311C20.4824 25.8836 19.6333 25.0345 18.5859 25.0345Z" fill="#0D6CC1"/>
  <path d="M11.0009 21.2415C12.4673 21.2415 13.656 20.0527 13.656 18.5863C13.656 17.1199 12.4673 15.9312 11.0009 15.9312C9.53446 15.9312 8.3457 17.1199 8.3457 18.5863C8.3457 20.0527 9.53446 21.2415 11.0009 21.2415Z" fill="white"/>
</svg>