<svg width="1400" height="1400" viewBox="0 0 700 700" fill="none" xmlns="http://www.w3.org/2000/svg">
<rect width="336" height="4" transform="matrix(-0.965926 0.25882 -0.258818 -0.965926 619.039 412.132)" fill="url(#paint0_linear_570_134)" fill-opacity="0.5"/>
<rect x="612.572" y="435.368" width="336" height="4" transform="rotate(170 612.572 435.368)" fill="url(#paint1_linear_570_134)" fill-opacity="0.5"/>
<rect x="623.453" y="388.421" width="336" height="4" transform="rotate(160 623.453 388.421)" fill="url(#paint2_linear_570_134)" fill-opacity="0.5"/>
<rect width="336" height="4" transform="matrix(-0.996195 0.0871564 -0.0871551 -0.996195 604.104 457.939)" fill="url(#paint3_linear_570_134)" fill-opacity="0.5"/>
<rect width="336" height="4" transform="matrix(-0.906309 0.422616 -0.42262 -0.906307 625.783 364.401)" fill="url(#paint4_linear_570_134)" fill-opacity="0.5"/>
<rect x="626.018" y="340.297" width="336" height="4" transform="rotate(150 626.018 340.297)" fill="url(#paint5_linear_570_134)" fill-opacity="0.5"/>
<rect x="593.705" y="479.713" width="336" height="4" transform="rotate(-180 593.705 479.713)" fill="url(#paint6_linear_570_134)" fill-opacity="0.5"/>
<rect x="624.145" y="316.251" width="336" height="4" transform="rotate(145 624.145 316.251)" fill="url(#paint7_linear_570_134)" fill-opacity="0.5"/>
<rect x="581.447" y="500.485" width="336" height="4" transform="rotate(-175 581.447 500.485)" fill="url(#paint8_linear_570_134)" fill-opacity="0.5"/>
<rect x="620.184" y="292.459" width="336" height="4" transform="rotate(140 620.184 292.459)" fill="url(#paint9_linear_570_134)" fill-opacity="0.5"/>
<rect x="567.426" y="520.109" width="336" height="4" transform="rotate(-170 567.426 520.109)" fill="url(#paint10_linear_570_134)" fill-opacity="0.5"/>
<rect x="551.742" y="538.422" width="336" height="4" transform="rotate(-165 551.742 538.422)" fill="url(#paint11_linear_570_134)" fill-opacity="0.5"/>
<rect x="614.16" y="269.09" width="336" height="4" transform="rotate(135 614.16 269.09)" fill="url(#paint12_linear_570_134)" fill-opacity="0.5"/>
<rect x="534.527" y="555.327" width="336" height="4" transform="rotate(-160 534.527 555.327)" fill="url(#paint13_linear_570_134)" fill-opacity="0.5"/>
<rect x="606.133" y="246.361" width="336" height="4" transform="rotate(130 606.133 246.361)" fill="url(#paint14_linear_570_134)" fill-opacity="0.5"/>
<rect x="515.904" y="570.652" width="336" height="4" transform="rotate(-155 515.904 570.652)" fill="url(#paint15_linear_570_134)" fill-opacity="0.5"/>
<rect x="596.148" y="224.406" width="336" height="4" transform="rotate(125 596.148 224.406)" fill="url(#paint16_linear_570_134)" fill-opacity="0.5"/>
<rect x="496.014" y="584.283" width="336" height="4" transform="rotate(-150 496.014 584.283)" fill="url(#paint17_linear_570_134)" fill-opacity="0.5"/>
<rect x="584.285" y="203.39" width="336" height="4" transform="rotate(120 584.285 203.39)" fill="url(#paint18_linear_570_134)" fill-opacity="0.5"/>
<rect width="336" height="4" transform="matrix(-0.819152 -0.573577 0.573576 -0.819152 475.014 596.156)" fill="url(#paint19_linear_570_134)" fill-opacity="0.5"/>
<rect x="570.643" y="183.515" width="336" height="4" transform="rotate(115 570.643 183.515)" fill="url(#paint20_linear_570_134)" fill-opacity="0.5"/>
<rect width="336" height="4" transform="matrix(-0.766044 -0.642788 0.642787 -0.766045 453.059 606.139)" fill="url(#paint21_linear_570_134)" fill-opacity="0.5"/>
<rect x="555.318" y="164.891" width="336" height="4" transform="rotate(110 555.318 164.891)" fill="url(#paint22_linear_570_134)" fill-opacity="0.5"/>
<rect x="430.312" y="614.157" width="336" height="4" transform="rotate(-135 430.312 614.157)" fill="url(#paint23_linear_570_134)" fill-opacity="0.5"/>
<rect width="336" height="4" transform="matrix(-0.25882 0.965926 -0.965926 -0.258818 538.424 147.66)" fill="url(#paint24_linear_570_134)" fill-opacity="0.5"/>
<rect width="336" height="4" transform="matrix(-0.642787 -0.766045 0.766044 -0.642789 406.961 620.191)" fill="url(#paint25_linear_570_134)" fill-opacity="0.5"/>
<rect x="520.1" y="131.995" width="336" height="4" transform="rotate(100 520.1 131.995)" fill="url(#paint26_linear_570_134)" fill-opacity="0.5"/>
<rect x="383.17" y="624.151" width="336" height="4" transform="rotate(-125 383.17 624.151)" fill="url(#paint27_linear_570_134)" fill-opacity="0.5"/>
<rect x="500.479" y="117.972" width="336" height="4" transform="rotate(95 500.479 117.972)" fill="url(#paint28_linear_570_134)" fill-opacity="0.5"/>
<rect width="336" height="4" transform="matrix(-0.499999 -0.866026 0.866025 -0.500001 359.121 626.023)" fill="url(#paint29_linear_570_134)" fill-opacity="0.5"/>
<rect width="336" height="4" transform="matrix(1.36021e-06 1 -1 -1.3642e-06 479.705 105.714)" fill="url(#paint30_linear_570_134)" fill-opacity="0.5"/>
<rect width="336" height="4" transform="matrix(-0.422619 -0.906308 0.906308 -0.422618 335 625.778)" fill="url(#paint31_linear_570_134)" fill-opacity="0.5"/>
<rect width="336" height="4" transform="matrix(0.0871544 0.996195 -0.996195 0.0871572 457.941 95.298)" fill="url(#paint32_linear_570_134)" fill-opacity="0.5"/>
<rect width="336" height="4" transform="matrix(0.173646 0.984808 -0.984807 0.17365 435.361 86.8461)" fill="url(#paint33_linear_570_134)" fill-opacity="0.5"/>
<rect x="310.998" y="623.46" width="336" height="4" transform="rotate(-110 310.998 623.46)" fill="url(#paint34_linear_570_134)" fill-opacity="0.5"/>
<rect x="287.287" y="619.046" width="336" height="4" transform="rotate(-105 287.287 619.046)" fill="url(#paint35_linear_570_134)" fill-opacity="0.5"/>
<rect width="336" height="4" transform="matrix(0.258818 0.965926 -0.965926 0.25882 412.125 80.3809)" fill="url(#paint36_linear_570_134)" fill-opacity="0.5"/>
<rect x="388.412" y="75.9663" width="336" height="4" transform="rotate(70 388.412 75.9663)" fill="url(#paint37_linear_570_134)" fill-opacity="0.5"/>
<rect x="264.051" y="612.58" width="336" height="4" transform="rotate(-100 264.051 612.58)" fill="url(#paint38_linear_570_134)" fill-opacity="0.5"/>
<rect width="336" height="4" transform="matrix(-0.0871564 -0.996195 0.996195 -0.0871551 241.463 604.101)" fill="url(#paint39_linear_570_134)" fill-opacity="0.5"/>
<rect width="336" height="4" transform="matrix(0.422617 0.906308 -0.906307 0.422619 364.402 73.6205)" fill="url(#paint40_linear_570_134)" fill-opacity="0.5"/>
<rect width="336" height="4" transform="matrix(1.3642e-06 -1 1 -1.36021e-06 219.705 593.713)" fill="url(#paint41_linear_570_134)" fill-opacity="0.5"/>
<rect width="336" height="4" transform="matrix(0.500001 0.866025 -0.866026 0.499999 340.287 73.4037)" fill="url(#paint42_linear_570_134)" fill-opacity="0.5"/>
<rect x="198.934" y="581.454" width="336" height="4" transform="rotate(-85 198.934 581.454)" fill="url(#paint43_linear_570_134)" fill-opacity="0.5"/>
<rect x="316.242" y="75.2754" width="336" height="4" transform="rotate(55 316.242 75.2754)" fill="url(#paint44_linear_570_134)" fill-opacity="0.5"/>
<rect x="179.311" y="567.432" width="336" height="4" transform="rotate(-80 179.311 567.432)" fill="url(#paint45_linear_570_134)" fill-opacity="0.5"/>
<rect x="292.451" y="79.2362" width="336" height="4" transform="rotate(50 292.451 79.2362)" fill="url(#paint46_linear_570_134)" fill-opacity="0.5"/>
<rect x="160.98" y="551.739" width="336" height="4" transform="rotate(-75 160.98 551.739)" fill="url(#paint47_linear_570_134)" fill-opacity="0.5"/>
<rect width="336" height="4" transform="matrix(0.707106 0.707108 -0.707106 0.707108 269.092 85.2417)" fill="url(#paint48_linear_570_134)" fill-opacity="0.5"/>
<rect x="246.352" y="93.2877" width="336" height="4" transform="rotate(40 246.352 93.2877)" fill="url(#paint49_linear_570_134)" fill-opacity="0.5"/>
<rect width="336" height="4" transform="matrix(0.342021 -0.939692 0.939693 0.34202 144.092 534.536)" fill="url(#paint50_linear_570_134)" fill-opacity="0.5"/>
<rect width="336" height="4" transform="matrix(0.422619 -0.906308 0.906308 0.422618 128.768 515.912)" fill="url(#paint51_linear_570_134)" fill-opacity="0.5"/>
<rect x="224.396" y="103.271" width="336" height="4" transform="rotate(35 224.396 103.271)" fill="url(#paint52_linear_570_134)" fill-opacity="0.5"/>
<rect x="115.119" y="496.01" width="336" height="4" transform="rotate(-60 115.119 496.01)" fill="url(#paint53_linear_570_134)" fill-opacity="0.5"/>
<rect x="203.391" y="115.117" width="336" height="4" transform="rotate(30 203.391 115.117)" fill="url(#paint54_linear_570_134)" fill-opacity="0.5"/>
<rect x="103.264" y="475.021" width="336" height="4" transform="rotate(-55 103.264 475.021)" fill="url(#paint55_linear_570_134)" fill-opacity="0.5"/>
<rect x="183.506" y="128.774" width="336" height="4" transform="rotate(25 183.506 128.774)" fill="url(#paint56_linear_570_134)" fill-opacity="0.5"/>
<rect x="93.2793" y="453.065" width="336" height="4" transform="rotate(-50 93.2793 453.065)" fill="url(#paint57_linear_570_134)" fill-opacity="0.5"/>
<rect x="164.883" y="144.1" width="336" height="4" transform="rotate(20 164.883 144.1)" fill="url(#paint58_linear_570_134)" fill-opacity="0.5"/>
<rect x="85.2441" y="430.309" width="336" height="4" transform="rotate(-45 85.2441 430.309)" fill="url(#paint59_linear_570_134)" fill-opacity="0.5"/>
<rect x="147.662" y="160.977" width="336" height="4" transform="rotate(15 147.662 160.977)" fill="url(#paint60_linear_570_134)" fill-opacity="0.5"/>
<rect x="131.986" y="179.318" width="336" height="4" transform="rotate(10 131.986 179.318)" fill="url(#paint61_linear_570_134)" fill-opacity="0.5"/>
<rect x="79.2285" y="406.967" width="336" height="4" transform="rotate(-40 79.2285 406.967)" fill="url(#paint62_linear_570_134)" fill-opacity="0.5"/>
<rect x="117.965" y="198.942" width="336" height="4" transform="rotate(5 117.965 198.942)" fill="url(#paint63_linear_570_134)" fill-opacity="0.5"/>
<rect x="75.2676" y="383.176" width="336" height="4" transform="rotate(-35 75.2676 383.176)" fill="url(#paint64_linear_570_134)" fill-opacity="0.5"/>
<rect x="105.705" y="219.713" width="336" height="4" fill="url(#paint65_linear_570_134)" fill-opacity="0.5"/>
<rect width="336" height="4" transform="matrix(0.866025 -0.500001 0.499999 0.866026 73.3965 359.13)" fill="url(#paint66_linear_570_134)" fill-opacity="0.5"/>
<rect width="336" height="4" transform="matrix(0.906308 -0.422619 0.422618 0.906308 73.623 334.999)" fill="url(#paint67_linear_570_134)" fill-opacity="0.5"/>
<rect width="336" height="4" transform="matrix(0.996195 -0.0871564 0.0871551 0.996195 95.3008 241.46)" fill="url(#paint68_linear_570_134)" fill-opacity="0.5"/>
<rect width="336" height="4" transform="matrix(0.939693 -0.342019 0.342021 0.939692 75.957 311.006)" fill="url(#paint69_linear_570_134)" fill-opacity="0.5"/>
<rect width="336" height="4" transform="matrix(0.984808 -0.173648 0.173649 0.984808 86.8379 264.058)" fill="url(#paint70_linear_570_134)" fill-opacity="0.5"/>
<rect width="336" height="4" transform="matrix(0.965926 -0.258818 0.25882 0.965926 80.3711 287.294)" fill="url(#paint71_linear_570_134)" fill-opacity="0.5"/>
<defs>
<linearGradient id="paint0_linear_570_134" x1="336" y1="0" x2="0" y2="0" gradientUnits="userSpaceOnUse">
<stop stop-color="#1D4ED8"/>
<stop offset="1" stop-color="white" stop-opacity="0"/>
</linearGradient>
<linearGradient id="paint1_linear_570_134" x1="948.572" y1="435.368" x2="612.572" y2="435.368" gradientUnits="userSpaceOnUse">
<stop stop-color="#1D4ED8"/>
<stop offset="1" stop-color="white" stop-opacity="0"/>
</linearGradient>
<linearGradient id="paint2_linear_570_134" x1="959.453" y1="388.421" x2="623.453" y2="388.421" gradientUnits="userSpaceOnUse">
<stop stop-color="#1D4ED8"/>
<stop offset="1" stop-color="white" stop-opacity="0"/>
</linearGradient>
<linearGradient id="paint3_linear_570_134" x1="336" y1="0" x2="0" y2="0" gradientUnits="userSpaceOnUse">
<stop stop-color="#1D4ED8"/>
<stop offset="1" stop-color="white" stop-opacity="0"/>
</linearGradient>
<linearGradient id="paint4_linear_570_134" x1="336" y1="0" x2="0" y2="0" gradientUnits="userSpaceOnUse">
<stop stop-color="#1D4ED8"/>
<stop offset="1" stop-color="white" stop-opacity="0"/>
</linearGradient>
<linearGradient id="paint5_linear_570_134" x1="962.018" y1="340.297" x2="626.018" y2="340.297" gradientUnits="userSpaceOnUse">
<stop stop-color="#1D4ED8"/>
<stop offset="1" stop-color="white" stop-opacity="0"/>
</linearGradient>
<linearGradient id="paint6_linear_570_134" x1="929.705" y1="479.713" x2="593.705" y2="479.713" gradientUnits="userSpaceOnUse">
<stop stop-color="#1D4ED8"/>
<stop offset="1" stop-color="white" stop-opacity="0"/>
</linearGradient>
<linearGradient id="paint7_linear_570_134" x1="960.145" y1="316.251" x2="624.145" y2="316.251" gradientUnits="userSpaceOnUse">
<stop stop-color="#1D4ED8"/>
<stop offset="1" stop-color="white" stop-opacity="0"/>
</linearGradient>
<linearGradient id="paint8_linear_570_134" x1="917.447" y1="500.485" x2="581.447" y2="500.485" gradientUnits="userSpaceOnUse">
<stop stop-color="#1D4ED8"/>
<stop offset="1" stop-color="white" stop-opacity="0"/>
</linearGradient>
<linearGradient id="paint9_linear_570_134" x1="956.184" y1="292.459" x2="620.184" y2="292.459" gradientUnits="userSpaceOnUse">
<stop stop-color="#1D4ED8"/>
<stop offset="1" stop-color="white" stop-opacity="0"/>
</linearGradient>
<linearGradient id="paint10_linear_570_134" x1="903.426" y1="520.109" x2="567.426" y2="520.109" gradientUnits="userSpaceOnUse">
<stop stop-color="#1D4ED8"/>
<stop offset="1" stop-color="white" stop-opacity="0"/>
</linearGradient>
<linearGradient id="paint11_linear_570_134" x1="887.742" y1="538.422" x2="551.742" y2="538.422" gradientUnits="userSpaceOnUse">
<stop stop-color="#1D4ED8"/>
<stop offset="1" stop-color="white" stop-opacity="0"/>
</linearGradient>
<linearGradient id="paint12_linear_570_134" x1="950.16" y1="269.09" x2="614.16" y2="269.09" gradientUnits="userSpaceOnUse">
<stop stop-color="#1D4ED8"/>
<stop offset="1" stop-color="white" stop-opacity="0"/>
</linearGradient>
<linearGradient id="paint13_linear_570_134" x1="870.527" y1="555.327" x2="534.527" y2="555.327" gradientUnits="userSpaceOnUse">
<stop stop-color="#1D4ED8"/>
<stop offset="1" stop-color="white" stop-opacity="0"/>
</linearGradient>
<linearGradient id="paint14_linear_570_134" x1="942.133" y1="246.361" x2="606.133" y2="246.361" gradientUnits="userSpaceOnUse">
<stop stop-color="#1D4ED8"/>
<stop offset="1" stop-color="white" stop-opacity="0"/>
</linearGradient>
<linearGradient id="paint15_linear_570_134" x1="851.904" y1="570.652" x2="515.904" y2="570.652" gradientUnits="userSpaceOnUse">
<stop stop-color="#1D4ED8"/>
<stop offset="1" stop-color="white" stop-opacity="0"/>
</linearGradient>
<linearGradient id="paint16_linear_570_134" x1="932.148" y1="224.406" x2="596.148" y2="224.406" gradientUnits="userSpaceOnUse">
<stop stop-color="#1D4ED8"/>
<stop offset="1" stop-color="white" stop-opacity="0"/>
</linearGradient>
<linearGradient id="paint17_linear_570_134" x1="832.014" y1="584.283" x2="496.014" y2="584.283" gradientUnits="userSpaceOnUse">
<stop stop-color="#1D4ED8"/>
<stop offset="1" stop-color="white" stop-opacity="0"/>
</linearGradient>
<linearGradient id="paint18_linear_570_134" x1="920.285" y1="203.39" x2="584.285" y2="203.39" gradientUnits="userSpaceOnUse">
<stop stop-color="#1D4ED8"/>
<stop offset="1" stop-color="white" stop-opacity="0"/>
</linearGradient>
<linearGradient id="paint19_linear_570_134" x1="336" y1="0" x2="0" y2="0" gradientUnits="userSpaceOnUse">
<stop stop-color="#1D4ED8"/>
<stop offset="1" stop-color="white" stop-opacity="0"/>
</linearGradient>
<linearGradient id="paint20_linear_570_134" x1="906.643" y1="183.515" x2="570.643" y2="183.515" gradientUnits="userSpaceOnUse">
<stop stop-color="#1D4ED8"/>
<stop offset="1" stop-color="white" stop-opacity="0"/>
</linearGradient>
<linearGradient id="paint21_linear_570_134" x1="336" y1="0" x2="0" y2="0" gradientUnits="userSpaceOnUse">
<stop stop-color="#1D4ED8"/>
<stop offset="1" stop-color="white" stop-opacity="0"/>
</linearGradient>
<linearGradient id="paint22_linear_570_134" x1="891.318" y1="164.891" x2="555.318" y2="164.891" gradientUnits="userSpaceOnUse">
<stop stop-color="#1D4ED8"/>
<stop offset="1" stop-color="white" stop-opacity="0"/>
</linearGradient>
<linearGradient id="paint23_linear_570_134" x1="766.312" y1="614.157" x2="430.312" y2="614.157" gradientUnits="userSpaceOnUse">
<stop stop-color="#1D4ED8"/>
<stop offset="1" stop-color="white" stop-opacity="0"/>
</linearGradient>
<linearGradient id="paint24_linear_570_134" x1="336" y1="0" x2="0" y2="0" gradientUnits="userSpaceOnUse">
<stop stop-color="#1D4ED8"/>
<stop offset="1" stop-color="white" stop-opacity="0"/>
</linearGradient>
<linearGradient id="paint25_linear_570_134" x1="336" y1="0" x2="0" y2="0" gradientUnits="userSpaceOnUse">
<stop stop-color="#1D4ED8"/>
<stop offset="1" stop-color="white" stop-opacity="0"/>
</linearGradient>
<linearGradient id="paint26_linear_570_134" x1="856.1" y1="131.995" x2="520.1" y2="131.995" gradientUnits="userSpaceOnUse">
<stop stop-color="#1D4ED8"/>
<stop offset="1" stop-color="white" stop-opacity="0"/>
</linearGradient>
<linearGradient id="paint27_linear_570_134" x1="719.17" y1="624.151" x2="383.17" y2="624.151" gradientUnits="userSpaceOnUse">
<stop stop-color="#1D4ED8"/>
<stop offset="1" stop-color="white" stop-opacity="0"/>
</linearGradient>
<linearGradient id="paint28_linear_570_134" x1="836.479" y1="117.972" x2="500.479" y2="117.972" gradientUnits="userSpaceOnUse">
<stop stop-color="#1D4ED8"/>
<stop offset="1" stop-color="white" stop-opacity="0"/>
</linearGradient>
<linearGradient id="paint29_linear_570_134" x1="336" y1="0" x2="0" y2="0" gradientUnits="userSpaceOnUse">
<stop stop-color="#1D4ED8"/>
<stop offset="1" stop-color="white" stop-opacity="0"/>
</linearGradient>
<linearGradient id="paint30_linear_570_134" x1="336" y1="0" x2="0" y2="0" gradientUnits="userSpaceOnUse">
<stop stop-color="#1D4ED8"/>
<stop offset="1" stop-color="white" stop-opacity="0"/>
</linearGradient>
<linearGradient id="paint31_linear_570_134" x1="336" y1="0" x2="0" y2="0" gradientUnits="userSpaceOnUse">
<stop stop-color="#1D4ED8"/>
<stop offset="1" stop-color="white" stop-opacity="0"/>
</linearGradient>
<linearGradient id="paint32_linear_570_134" x1="336" y1="0" x2="0" y2="0" gradientUnits="userSpaceOnUse">
<stop stop-color="#1D4ED8"/>
<stop offset="1" stop-color="white" stop-opacity="0"/>
</linearGradient>
<linearGradient id="paint33_linear_570_134" x1="336" y1="0" x2="0" y2="0" gradientUnits="userSpaceOnUse">
<stop stop-color="#1D4ED8"/>
<stop offset="1" stop-color="white" stop-opacity="0"/>
</linearGradient>
<linearGradient id="paint34_linear_570_134" x1="646.998" y1="623.46" x2="310.998" y2="623.46" gradientUnits="userSpaceOnUse">
<stop stop-color="#1D4ED8"/>
<stop offset="1" stop-color="white" stop-opacity="0"/>
</linearGradient>
<linearGradient id="paint35_linear_570_134" x1="623.287" y1="619.046" x2="287.287" y2="619.046" gradientUnits="userSpaceOnUse">
<stop stop-color="#1D4ED8"/>
<stop offset="1" stop-color="white" stop-opacity="0"/>
</linearGradient>
<linearGradient id="paint36_linear_570_134" x1="336" y1="0" x2="0" y2="0" gradientUnits="userSpaceOnUse">
<stop stop-color="#1D4ED8"/>
<stop offset="1" stop-color="white" stop-opacity="0"/>
</linearGradient>
<linearGradient id="paint37_linear_570_134" x1="724.412" y1="75.9663" x2="388.412" y2="75.9663" gradientUnits="userSpaceOnUse">
<stop stop-color="#1D4ED8"/>
<stop offset="1" stop-color="white" stop-opacity="0"/>
</linearGradient>
<linearGradient id="paint38_linear_570_134" x1="600.051" y1="612.58" x2="264.051" y2="612.58" gradientUnits="userSpaceOnUse">
<stop stop-color="#1D4ED8"/>
<stop offset="1" stop-color="white" stop-opacity="0"/>
</linearGradient>
<linearGradient id="paint39_linear_570_134" x1="336" y1="0" x2="0" y2="0" gradientUnits="userSpaceOnUse">
<stop stop-color="#1D4ED8"/>
<stop offset="1" stop-color="white" stop-opacity="0"/>
</linearGradient>
<linearGradient id="paint40_linear_570_134" x1="336" y1="0" x2="0" y2="0" gradientUnits="userSpaceOnUse">
<stop stop-color="#1D4ED8"/>
<stop offset="1" stop-color="white" stop-opacity="0"/>
</linearGradient>
<linearGradient id="paint41_linear_570_134" x1="336" y1="0" x2="0" y2="0" gradientUnits="userSpaceOnUse">
<stop stop-color="#1D4ED8"/>
<stop offset="1" stop-color="white" stop-opacity="0"/>
</linearGradient>
<linearGradient id="paint42_linear_570_134" x1="336" y1="0" x2="0" y2="0" gradientUnits="userSpaceOnUse">
<stop stop-color="#1D4ED8"/>
<stop offset="1" stop-color="white" stop-opacity="0"/>
</linearGradient>
<linearGradient id="paint43_linear_570_134" x1="534.934" y1="581.454" x2="198.934" y2="581.454" gradientUnits="userSpaceOnUse">
<stop stop-color="#1D4ED8"/>
<stop offset="1" stop-color="white" stop-opacity="0"/>
</linearGradient>
<linearGradient id="paint44_linear_570_134" x1="652.242" y1="75.2754" x2="316.242" y2="75.2754" gradientUnits="userSpaceOnUse">
<stop stop-color="#1D4ED8"/>
<stop offset="1" stop-color="white" stop-opacity="0"/>
</linearGradient>
<linearGradient id="paint45_linear_570_134" x1="515.311" y1="567.432" x2="179.311" y2="567.432" gradientUnits="userSpaceOnUse">
<stop stop-color="#1D4ED8"/>
<stop offset="1" stop-color="white" stop-opacity="0"/>
</linearGradient>
<linearGradient id="paint46_linear_570_134" x1="628.451" y1="79.2362" x2="292.451" y2="79.2362" gradientUnits="userSpaceOnUse">
<stop stop-color="#1D4ED8"/>
<stop offset="1" stop-color="white" stop-opacity="0"/>
</linearGradient>
<linearGradient id="paint47_linear_570_134" x1="496.98" y1="551.739" x2="160.98" y2="551.739" gradientUnits="userSpaceOnUse">
<stop stop-color="#1D4ED8"/>
<stop offset="1" stop-color="white" stop-opacity="0"/>
</linearGradient>
<linearGradient id="paint48_linear_570_134" x1="336" y1="0" x2="0" y2="0" gradientUnits="userSpaceOnUse">
<stop stop-color="#1D4ED8"/>
<stop offset="1" stop-color="white" stop-opacity="0"/>
</linearGradient>
<linearGradient id="paint49_linear_570_134" x1="582.352" y1="93.2877" x2="246.352" y2="93.2877" gradientUnits="userSpaceOnUse">
<stop stop-color="#1D4ED8"/>
<stop offset="1" stop-color="white" stop-opacity="0"/>
</linearGradient>
<linearGradient id="paint50_linear_570_134" x1="336" y1="0" x2="0" y2="0" gradientUnits="userSpaceOnUse">
<stop stop-color="#1D4ED8"/>
<stop offset="1" stop-color="white" stop-opacity="0"/>
</linearGradient>
<linearGradient id="paint51_linear_570_134" x1="336" y1="0" x2="0" y2="0" gradientUnits="userSpaceOnUse">
<stop stop-color="#1D4ED8"/>
<stop offset="1" stop-color="white" stop-opacity="0"/>
</linearGradient>
<linearGradient id="paint52_linear_570_134" x1="560.396" y1="103.271" x2="224.396" y2="103.271" gradientUnits="userSpaceOnUse">
<stop stop-color="#1D4ED8"/>
<stop offset="1" stop-color="white" stop-opacity="0"/>
</linearGradient>
<linearGradient id="paint53_linear_570_134" x1="451.119" y1="496.01" x2="115.119" y2="496.01" gradientUnits="userSpaceOnUse">
<stop stop-color="#1D4ED8"/>
<stop offset="1" stop-color="white" stop-opacity="0"/>
</linearGradient>
<linearGradient id="paint54_linear_570_134" x1="539.391" y1="115.117" x2="203.391" y2="115.117" gradientUnits="userSpaceOnUse">
<stop stop-color="#1D4ED8"/>
<stop offset="1" stop-color="white" stop-opacity="0"/>
</linearGradient>
<linearGradient id="paint55_linear_570_134" x1="439.264" y1="475.021" x2="103.264" y2="475.021" gradientUnits="userSpaceOnUse">
<stop stop-color="#1D4ED8"/>
<stop offset="1" stop-color="white" stop-opacity="0"/>
</linearGradient>
<linearGradient id="paint56_linear_570_134" x1="519.506" y1="128.774" x2="183.506" y2="128.774" gradientUnits="userSpaceOnUse">
<stop stop-color="#1D4ED8"/>
<stop offset="1" stop-color="white" stop-opacity="0"/>
</linearGradient>
<linearGradient id="paint57_linear_570_134" x1="429.279" y1="453.065" x2="93.2793" y2="453.065" gradientUnits="userSpaceOnUse">
<stop stop-color="#1D4ED8"/>
<stop offset="1" stop-color="white" stop-opacity="0"/>
</linearGradient>
<linearGradient id="paint58_linear_570_134" x1="500.883" y1="144.1" x2="164.883" y2="144.1" gradientUnits="userSpaceOnUse">
<stop stop-color="#1D4ED8"/>
<stop offset="1" stop-color="white" stop-opacity="0"/>
</linearGradient>
<linearGradient id="paint59_linear_570_134" x1="421.244" y1="430.309" x2="85.2441" y2="430.309" gradientUnits="userSpaceOnUse">
<stop stop-color="#1D4ED8"/>
<stop offset="1" stop-color="white" stop-opacity="0"/>
</linearGradient>
<linearGradient id="paint60_linear_570_134" x1="483.662" y1="160.977" x2="147.662" y2="160.977" gradientUnits="userSpaceOnUse">
<stop stop-color="#1D4ED8"/>
<stop offset="1" stop-color="white" stop-opacity="0"/>
</linearGradient>
<linearGradient id="paint61_linear_570_134" x1="467.986" y1="179.318" x2="131.986" y2="179.318" gradientUnits="userSpaceOnUse">
<stop stop-color="#1D4ED8"/>
<stop offset="1" stop-color="white" stop-opacity="0"/>
</linearGradient>
<linearGradient id="paint62_linear_570_134" x1="415.229" y1="406.967" x2="79.2285" y2="406.967" gradientUnits="userSpaceOnUse">
<stop stop-color="#1D4ED8"/>
<stop offset="1" stop-color="white" stop-opacity="0"/>
</linearGradient>
<linearGradient id="paint63_linear_570_134" x1="453.965" y1="198.942" x2="117.965" y2="198.942" gradientUnits="userSpaceOnUse">
<stop stop-color="#1D4ED8"/>
<stop offset="1" stop-color="white" stop-opacity="0"/>
</linearGradient>
<linearGradient id="paint64_linear_570_134" x1="411.268" y1="383.176" x2="75.2676" y2="383.176" gradientUnits="userSpaceOnUse">
<stop stop-color="#1D4ED8"/>
<stop offset="1" stop-color="white" stop-opacity="0"/>
</linearGradient>
<linearGradient id="paint65_linear_570_134" x1="441.705" y1="219.713" x2="105.705" y2="219.713" gradientUnits="userSpaceOnUse">
<stop stop-color="#1D4ED8"/>
<stop offset="1" stop-color="white" stop-opacity="0"/>
</linearGradient>
<linearGradient id="paint66_linear_570_134" x1="336" y1="0" x2="0" y2="0" gradientUnits="userSpaceOnUse">
<stop stop-color="#1D4ED8"/>
<stop offset="1" stop-color="white" stop-opacity="0"/>
</linearGradient>
<linearGradient id="paint67_linear_570_134" x1="336" y1="0" x2="0" y2="0" gradientUnits="userSpaceOnUse">
<stop stop-color="#1D4ED8"/>
<stop offset="1" stop-color="white" stop-opacity="0"/>
</linearGradient>
<linearGradient id="paint68_linear_570_134" x1="336" y1="0" x2="0" y2="0" gradientUnits="userSpaceOnUse">
<stop stop-color="#1D4ED8"/>
<stop offset="1" stop-color="white" stop-opacity="0"/>
</linearGradient>
<linearGradient id="paint69_linear_570_134" x1="336" y1="0" x2="0" y2="0" gradientUnits="userSpaceOnUse">
<stop stop-color="#1D4ED8"/>
<stop offset="1" stop-color="white" stop-opacity="0"/>
</linearGradient>
<linearGradient id="paint70_linear_570_134" x1="336" y1="0" x2="0" y2="0" gradientUnits="userSpaceOnUse">
<stop stop-color="#1D4ED8"/>
<stop offset="1" stop-color="white" stop-opacity="0"/>
</linearGradient>
<linearGradient id="paint71_linear_570_134" x1="336" y1="0" x2="0" y2="0" gradientUnits="userSpaceOnUse">
<stop stop-color="#1D4ED8"/>
<stop offset="1" stop-color="white" stop-opacity="0"/>
</linearGradient>
</defs>
</svg>
