<svg width="802" height="795" viewBox="0 0 802 795" fill="none" xmlns="http://www.w3.org/2000/svg">
<path d="M151.436 457.092L574.987 580.432M151.436 457.092L469.347 153.355M151.436 457.092L0.614024 494.426M151.436 457.092L112.952 99.3939M151.436 457.092L284.798 794.031M574.987 580.432L469.347 153.355M574.987 580.432L801.142 298.128M574.987 580.432L682.825 695.055M574.987 580.432L284.798 794.031M469.347 153.355L801.142 298.128M469.347 153.355L515.209 0.613329M469.347 153.355L112.952 99.3939M801.142 298.128L682.825 695.055M801.142 298.128L515.209 0.613329M682.825 695.055L284.798 794.031M284.798 794.031L0.614024 494.426M0.614024 494.426L112.952 99.3939M112.952 99.3939L515.209 0.613329" stroke="white" stroke-opacity="0.18" stroke-width="1.22657" stroke-linecap="round" stroke-linejoin="round"/>
</svg>
