<svg width="57" height="57" viewBox="0 0 57 57" fill="none" xmlns="http://www.w3.org/2000/svg">
<path d="M57 57H0V0H57V57Z" />
<path d="M28.5 11.875C28.5028 10.9251 28.3156 9.98417 27.9494 9.10765C27.5833 8.23112 27.0455 7.43666 26.3679 6.77099C25.6902 6.10533 24.8862 5.5819 24.0033 5.23148C23.1203 4.88107 22.1762 4.71076 21.2265 4.73055C20.2768 4.75035 19.3406 4.95986 18.473 5.34675C17.6055 5.73365 16.824 6.29013 16.1747 6.98346C15.5253 7.67678 15.0211 8.49296 14.6918 9.38398C14.3625 10.275 14.2147 11.2229 14.2571 12.1719C12.8611 12.5308 11.565 13.2027 10.4671 14.1367C9.36924 15.0707 8.49828 16.2423 7.92022 17.5628C7.34215 18.8832 7.07214 20.3179 7.13064 21.7581C7.18913 23.1984 7.5746 24.6064 8.25784 25.8756C7.05652 26.8516 6.11185 28.1063 5.50602 29.5306C4.90019 30.9549 4.65154 32.5057 4.7817 34.048C4.91187 35.5903 5.4169 37.0774 6.25288 38.3801C7.08885 39.6827 8.23044 40.7613 9.57834 41.5221C9.41189 42.8099 9.51122 44.1182 9.87019 45.3661C10.2292 46.614 10.8402 47.7751 11.6655 48.7776C12.4907 49.7802 13.5128 50.6029 14.6685 51.1949C15.8242 51.787 17.089 52.1358 18.3848 52.2199C19.6806 52.304 20.9799 52.1216 22.2024 51.6838C23.4249 51.2461 24.5447 50.5624 25.4926 49.6749C26.4406 48.7875 27.1965 47.7151 27.7138 46.524C28.231 45.333 28.4986 44.0485 28.5 42.75V11.875Z" stroke="#667EEA" stroke-width="3.33333" stroke-linecap="round" stroke-linejoin="round"/>
<path d="M21.375 30.875C23.3689 30.1736 25.1101 28.8966 26.3784 27.2056C27.6466 25.5147 28.3849 23.4856 28.5 21.375" stroke="#667EEA" stroke-width="3.33333" stroke-linecap="round" stroke-linejoin="round"/>
<path d="M14.2578 12.1719C14.3048 13.3207 14.6291 14.4412 15.2031 15.4375" stroke="#667EEA" stroke-width="3.33333" stroke-linecap="round" stroke-linejoin="round"/>
<path d="M8.25781 25.878C8.69229 25.5241 9.15723 25.2094 9.64719 24.9375" stroke="#667EEA" stroke-width="3.33333" stroke-linecap="round" stroke-linejoin="round"/>
<path d="M14.2498 42.75C12.613 42.7508 11.0038 42.3286 9.57812 41.5245" stroke="#667EEA" stroke-width="3.33333" stroke-linecap="round" stroke-linejoin="round"/>
<path d="M28.5 30.875H38" stroke="#667EEA" stroke-width="3.33333" stroke-linecap="round" stroke-linejoin="round"/>
<path d="M28.5 42.75H42.75C44.0098 42.75 45.218 43.2504 46.1088 44.1412C46.9996 45.032 47.5 46.2402 47.5 47.5V49.875" stroke="#667EEA" stroke-width="3.33333" stroke-linecap="round" stroke-linejoin="round"/>
<path d="M28.5 19H47.5" stroke="#667EEA" stroke-width="3.33333" stroke-linecap="round" stroke-linejoin="round"/>
<path d="M38 19V11.875C38 10.6152 38.5004 9.40704 39.3912 8.51624C40.282 7.62544 41.4902 7.125 42.75 7.125" stroke="#667EEA" stroke-width="3.33333" stroke-linecap="round" stroke-linejoin="round"/>
<path d="M38 32.0625C38.6558 32.0625 39.1875 31.5308 39.1875 30.875C39.1875 30.2192 38.6558 29.6875 38 29.6875C37.3442 29.6875 36.8125 30.2192 36.8125 30.875C36.8125 31.5308 37.3442 32.0625 38 32.0625Z" stroke="#667EEA" stroke-width="3.33333" stroke-linecap="round" stroke-linejoin="round"/>
<path d="M42.75 8.3125C43.4058 8.3125 43.9375 7.78084 43.9375 7.125C43.9375 6.46916 43.4058 5.9375 42.75 5.9375C42.0942 5.9375 41.5625 6.46916 41.5625 7.125C41.5625 7.78084 42.0942 8.3125 42.75 8.3125Z" stroke="#667EEA" stroke-width="3.33333" stroke-linecap="round" stroke-linejoin="round"/>
<path d="M47.5 51.0625C48.1558 51.0625 48.6875 50.5308 48.6875 49.875C48.6875 49.2192 48.1558 48.6875 47.5 48.6875C46.8442 48.6875 46.3125 49.2192 46.3125 49.875C46.3125 50.5308 46.8442 51.0625 47.5 51.0625Z" stroke="#667EEA" stroke-width="3.33333" stroke-linecap="round" stroke-linejoin="round"/>
<path d="M47.5 20.1875C48.1558 20.1875 48.6875 19.6558 48.6875 19C48.6875 18.3442 48.1558 17.8125 47.5 17.8125C46.8442 17.8125 46.3125 18.3442 46.3125 19C46.3125 19.6558 46.8442 20.1875 47.5 20.1875Z" stroke="#667EEA" stroke-width="3.33333" stroke-linecap="round" stroke-linejoin="round"/>
</svg>
