<svg xmlns="http://www.w3.org/2000/svg" width="51" height="37" viewBox="0 0 51 37" fill="none">
  <path d="M38.4743 34.9167H18.2868C15.2037 34.9159 12.1816 34.0578 9.5581 32.4383C6.93464 30.8188 4.81319 28.5017 3.43083 25.7459C2.04846 22.9901 1.45963 19.9042 1.73014 16.833C2.00065 13.7618 3.11984 10.8264 4.96264 8.35463C6.80545 5.88291 9.29927 3.97231 12.1654 2.83633C15.0316 1.70035 18.1572 1.38375 21.1929 1.9219C24.2287 2.46005 27.055 3.83176 29.356 5.88374C31.657 7.93571 33.3421 10.5871 34.223 13.5417H38.4743C41.3088 13.5417 44.0272 14.6677 46.0315 16.672C48.0358 18.6763 49.1618 21.3947 49.1618 24.2292C49.1618 27.0637 48.0358 29.7821 46.0315 31.7864C44.0272 33.7907 41.3088 34.9167 38.4743 34.9167Z" stroke="#667EEA" stroke-width="3.33333" stroke-linecap="round" stroke-linejoin="round"/>
</svg>