<svg xmlns="http://www.w3.org/2000/svg" width="57" height="57" viewBox="0 0 57 57" fill="none">
  <path d="M57 57H0V0H57V57Z" />
  <path d="M28.5 19C40.3051 19 49.875 15.81 49.875 11.875C49.875 7.93997 40.3051 4.75 28.5 4.75C16.6949 4.75 7.125 7.93997 7.125 11.875C7.125 15.81 16.6949 19 28.5 19Z" stroke="#667EEA" stroke-width="3.33333" stroke-linecap="round" stroke-linejoin="round"/>
  <path d="M7.125 11.875V45.125C7.125 47.0147 9.377 48.8269 13.3856 50.1631C17.3942 51.4993 22.831 52.25 28.5 52.25C34.169 52.25 39.6058 51.4993 43.6144 50.1631C47.623 48.8269 49.875 47.0147 49.875 45.125V11.875" stroke="#667EEA" stroke-width="3.33333" stroke-linecap="round" stroke-linejoin="round"/>
  <path d="M7.125 28.5C7.125 30.3897 9.377 32.2019 13.3856 33.5381C17.3942 34.8743 22.831 35.625 28.5 35.625C34.169 35.625 39.6058 34.8743 43.6144 33.5381C47.623 32.2019 49.875 30.3897 49.875 28.5" stroke="#667EEA" stroke-width="3.33333" stroke-linecap="round" stroke-linejoin="round"/>
</svg>