<svg width="57" height="59" viewBox="0 0 57 59" fill="none" xmlns="http://www.w3.org/2000/svg">
<path d="M57 58.5H0V0H57V58.5Z" />
<path d="M35.625 33.5C36.1 31.125 37.2875 29.4625 39.1875 27.5625C41.5625 25.425 42.75 22.3375 42.75 19.25C42.75 15.4707 41.2487 11.8461 38.5763 9.17373C35.9039 6.50133 32.2793 5 28.5 5C24.7207 5 21.0961 6.50133 18.4237 9.17373C15.7513 11.8461 14.25 15.4707 14.25 19.25C14.25 21.625 14.725 24.475 17.8125 27.5625C19.475 29.225 20.9 31.125 21.375 33.5" stroke="#667EEA" stroke-width="3.33333" stroke-linecap="round" stroke-linejoin="round"/>
<path d="M21.375 43.5H35.625" stroke="#667EEA" stroke-width="3.33333" stroke-linecap="round" stroke-linejoin="round"/>
<path d="M23.75 53.5H33.25" stroke="#667EEA" stroke-width="3.33333" stroke-linecap="round" stroke-linejoin="round"/>
</svg>
