<svg width="48" height="48" viewBox="0 0 48 48" fill="none" xmlns="http://www.w3.org/2000/svg">
<rect width="48" height="48" rx="24" fill="white"/>
<g clip-path="url(#clip0_453_1868)">
<g clip-path="url(#clip1_453_1868)">
<path d="M32.0847 22.5L33.2867 23.221C33.3608 23.2654 33.4222 23.3283 33.4648 23.4034C33.5074 23.4786 33.5298 23.5636 33.5298 23.65C33.5298 23.7364 33.5074 23.8214 33.4648 23.8966C33.4222 23.9718 33.3608 24.0346 33.2867 24.079L24.0017 29.65L14.7167 24.08C14.6423 24.0357 14.5807 23.9728 14.5379 23.8975C14.4951 23.8222 14.4727 23.7371 14.4727 23.6505C14.4727 23.5639 14.4951 23.4788 14.5379 23.4035C14.5807 23.3282 14.6423 23.2653 14.7167 23.221L15.9187 22.501L24.0017 27.35L32.0847 22.5ZM32.0847 27.2L33.2867 27.921C33.3608 27.9654 33.4222 28.0283 33.4648 28.1034C33.5074 28.1786 33.5298 28.2636 33.5298 28.35C33.5298 28.4364 33.5074 28.5214 33.4648 28.5966C33.4222 28.6718 33.3608 28.7346 33.2867 28.779L24.5167 34.041C24.3611 34.1345 24.1831 34.1838 24.0017 34.1838C23.8202 34.1838 23.6422 34.1345 23.4867 34.041L14.7167 28.779C14.6425 28.7346 14.5811 28.6718 14.5385 28.5966C14.4959 28.5214 14.4735 28.4364 14.4735 28.35C14.4735 28.2636 14.4959 28.1786 14.5385 28.1034C14.5811 28.0283 14.6425 27.9654 14.7167 27.921L15.9187 27.201L24.0017 32.05L32.0847 27.2ZM24.5157 13.31L33.2867 18.571C33.3608 18.6154 33.4222 18.6783 33.4648 18.7534C33.5074 18.8286 33.5298 18.9136 33.5298 19C33.5298 19.0864 33.5074 19.1714 33.4648 19.2466C33.4222 19.3218 33.3608 19.3846 33.2867 19.429L24.0017 25L14.7167 19.43C14.6423 19.3857 14.5807 19.3228 14.5379 19.2475C14.4951 19.1722 14.4727 19.0871 14.4727 19.0005C14.4727 18.9139 14.4951 18.8288 14.5379 18.7535C14.5807 18.6782 14.6423 18.6153 14.7167 18.571L23.4867 13.309C23.6422 13.2156 23.8202 13.1662 24.0017 13.1662C24.1831 13.1662 24.3611 13.2156 24.5167 13.309L24.5157 13.31Z" fill="#121A2B"/>
<path d="M32.0847 22.5L33.2867 23.221C33.3608 23.2654 33.4222 23.3283 33.4648 23.4034C33.5074 23.4786 33.5298 23.5636 33.5298 23.65C33.5298 23.7364 33.5074 23.8214 33.4648 23.8966C33.4222 23.9718 33.3608 24.0346 33.2867 24.079L24.0017 29.65L14.7167 24.08C14.6423 24.0357 14.5807 23.9728 14.5379 23.8975C14.4951 23.8222 14.4727 23.7371 14.4727 23.6505C14.4727 23.5639 14.4951 23.4788 14.5379 23.4035C14.5807 23.3282 14.6423 23.2653 14.7167 23.221L15.9187 22.501L24.0017 27.35L32.0847 22.5ZM32.0847 27.2L33.2867 27.921C33.3608 27.9654 33.4222 28.0283 33.4648 28.1034C33.5074 28.1786 33.5298 28.2636 33.5298 28.35C33.5298 28.4364 33.5074 28.5214 33.4648 28.5966C33.4222 28.6718 33.3608 28.7346 33.2867 28.779L24.5167 34.041C24.3611 34.1345 24.1831 34.1838 24.0017 34.1838C23.8202 34.1838 23.6422 34.1345 23.4867 34.041L14.7167 28.779C14.6425 28.7346 14.5811 28.6718 14.5385 28.5966C14.4959 28.5214 14.4735 28.4364 14.4735 28.35C14.4735 28.2636 14.4959 28.1786 14.5385 28.1034C14.5811 28.0283 14.6425 27.9654 14.7167 27.921L15.9187 27.201L24.0017 32.05L32.0847 27.2ZM24.5157 13.31L33.2867 18.571C33.3608 18.6154 33.4222 18.6783 33.4648 18.7534C33.5074 18.8286 33.5298 18.9136 33.5298 19C33.5298 19.0864 33.5074 19.1714 33.4648 19.2466C33.4222 19.3218 33.3608 19.3846 33.2867 19.429L24.0017 25L14.7167 19.43C14.6423 19.3857 14.5807 19.3228 14.5379 19.2475C14.4951 19.1722 14.4727 19.0871 14.4727 19.0005C14.4727 18.9139 14.4951 18.8288 14.5379 18.7535C14.5807 18.6782 14.6423 18.6153 14.7167 18.571L23.4867 13.309C23.6422 13.2156 23.8202 13.1662 24.0017 13.1662C24.1831 13.1662 24.3611 13.2156 24.5167 13.309L24.5157 13.31Z" fill="url(#paint0_linear_453_1868)" fill-opacity="0.24"/>
</g>
</g>
<rect x="0.5" y="0.5" width="47" height="47" rx="23.5" stroke="#E9EBF1"/>
<defs>
<linearGradient id="paint0_linear_453_1868" x1="24.0017" y1="13.166" x2="24.0017" y2="34.184" gradientUnits="userSpaceOnUse">
<stop stop-color="white"/>
<stop offset="1" stop-color="white" stop-opacity="0"/>
</linearGradient>
<clipPath id="clip0_453_1868">
<rect width="32" height="32" fill="white" transform="translate(8 8)"/>
</clipPath>
<clipPath id="clip1_453_1868">
<rect width="32" height="32" fill="white" transform="translate(8 8)"/>
</clipPath>
</defs>
</svg>
