<svg width="48" height="48" viewBox="0 0 48 48" fill="none" xmlns="http://www.w3.org/2000/svg">
<rect width="48" height="48" rx="24" fill="white"/>
<rect x="0.5" y="0.5" width="47" height="47" rx="23.5" stroke="#E9EBF1"/>
<path d="M22.832 26C23.2987 26 23.7376 25.9389 24.1487 25.8167C24.5598 25.6944 24.9654 25.5111 25.3654 25.2667L27.3987 27.3667C27.5765 27.5667 27.8043 27.6611 28.082 27.65C28.3598 27.6389 28.5987 27.5444 28.7987 27.3667C28.9987 27.1667 29.1043 26.9278 29.1154 26.65C29.1265 26.3722 29.032 26.1333 28.832 25.9333L26.7654 23.8667C27.0098 23.4889 27.1931 23.0889 27.3154 22.6667C27.4376 22.2444 27.4987 21.8 27.4987 21.3333C27.4987 20.0222 27.0376 18.9167 26.1154 18.0167C25.1931 17.1167 24.0987 16.6667 22.832 16.6667C21.5654 16.6667 20.4709 17.1167 19.5487 18.0167C18.6265 18.9167 18.1654 20.0222 18.1654 21.3333C18.1654 22.6444 18.6265 23.75 19.5487 24.65C20.4709 25.55 21.5654 26 22.832 26ZM22.832 24C22.0987 24 21.4709 23.7389 20.9487 23.2167C20.4265 22.6944 20.1654 22.0667 20.1654 21.3333C20.1654 20.6 20.4265 19.9722 20.9487 19.45C21.4709 18.9278 22.0987 18.6667 22.832 18.6667C23.5431 18.6667 24.1654 18.9278 24.6987 19.45C25.232 19.9722 25.4987 20.6 25.4987 21.3333C25.4987 22.0667 25.2376 22.6944 24.7154 23.2167C24.1931 23.7389 23.5654 24 22.832 24ZM10.1654 36C9.78759 36 9.47092 35.8722 9.21536 35.6167C8.95981 35.3611 8.83203 35.0444 8.83203 34.6667C8.83203 34.2889 8.95981 33.9722 9.21536 33.7167C9.47092 33.4611 9.78759 33.3333 10.1654 33.3333H36.832C37.2098 33.3333 37.5265 33.4611 37.782 33.7167C38.0376 33.9722 38.1654 34.2889 38.1654 34.6667C38.1654 35.0444 38.0376 35.3611 37.782 35.6167C37.5265 35.8722 37.2098 36 36.832 36H10.1654ZM12.832 32C12.0987 32 11.4709 31.7389 10.9487 31.2167C10.4265 30.6944 10.1654 30.0667 10.1654 29.3333V14.6667C10.1654 13.9333 10.4265 13.3056 10.9487 12.7833C11.4709 12.2611 12.0987 12 12.832 12H34.1654C34.8987 12 35.5265 12.2611 36.0487 12.7833C36.5709 13.3056 36.832 13.9333 36.832 14.6667V29.3333C36.832 30.0667 36.5709 30.6944 36.0487 31.2167C35.5265 31.7389 34.8987 32 34.1654 32H12.832ZM12.832 29.3333H34.1654V14.6667H12.832V29.3333Z" fill="#404755"/>
</svg>
