<svg width="258" height="169" viewBox="0 0 258 169" fill="none" xmlns="http://www.w3.org/2000/svg">
<g clip-path="url(#clip0_448_1146)">
<g clip-path="url(#clip1_448_1146)">
<mask id="mask0_448_1146" style="mask-type:luminance" maskUnits="userSpaceOnUse" x="-13" y="0" width="334" height="308">
<path d="M-12.5117 0H320.513V308H-12.5117V0Z" fill="white"/>
</mask>
<g mask="url(#mask0_448_1146)">
<path d="M131.663 201.351L120.956 185.09M131.663 201.351L137.972 220.484M131.663 201.351L134.387 203.1M131.663 201.351L127.484 195.321M120.956 185.09L119.535 182.932M120.956 185.09L122.85 187.001M137.972 220.484L139.213 240.974M137.972 220.484L133.35 214.58M137.972 220.484L141.587 221.772M134.387 203.1L141.587 221.772M134.387 203.1L136.736 201.981M134.387 203.1L122.85 187.001M127.484 195.321L116.83 178.824M127.484 195.321L133.35 214.58M127.484 195.321L117.073 190.79M119.535 182.932L116.83 178.824M119.535 182.932L124.658 186.851M122.85 187.001L124.658 186.851M116.83 178.824L111.645 174.34M116.83 178.824L106.828 174.877M124.658 186.851L136.736 201.981M124.658 186.851L126.251 184.169M111.645 174.34L110.813 173.621M111.645 174.34L126.251 184.169M106.828 174.877L105.012 173.303L104.99 173.285L92.7435 162.673M106.828 174.877L90.7915 176.444M106.828 174.877L117.073 190.79M110.813 173.621L103.668 167.44M110.813 173.621L112.15 170.262M126.251 184.169L138.773 197.634M126.251 184.169L127.627 179.188M103.668 167.44L103.418 167.224L102.202 166.172M103.668 167.44L112.15 170.262M112.15 170.262L127.627 179.188M112.15 170.262L113.436 165.753M102.202 166.172L95.6502 163.197M102.202 166.172L92.7435 162.673M95.6502 163.197L88.9705 160.162M95.6502 163.197L96.6252 161.012M92.7435 162.673L75.8112 154.98M92.7435 162.673L78.7353 165.94M88.9705 160.162L84.6306 158.192L80.6044 156.726M88.9705 160.162L96.6252 161.012M96.6252 161.012L113.436 165.753M96.6252 161.012L98.0671 156.016M80.6044 156.726L75.8112 154.98M80.6044 156.726L81.5814 154.314M75.8112 154.98L72.608 154.511M75.8112 154.98L64.216 159.307M81.5814 154.314L72.608 154.511M81.5814 154.314L98.0671 156.016M81.5814 154.314L83.6055 147.291M72.608 154.511L66.6174 153.633M64.216 159.307L48.2048 156.943M64.216 159.307L56.2349 167.102L56.206 167.13L51.2713 171.951M64.216 159.307L78.7353 165.94M66.6174 153.633L57.1945 152.254M66.6174 153.633L68.9361 146.682M68.9361 146.682L83.6055 147.291M68.9361 146.682L71.6022 138.164M68.9361 146.682L56.6103 147.287M54.8085 152.543L57.1955 152.254L48.2048 156.943M54.8085 152.543L45.9795 153.608M54.8085 152.543L56.6103 147.287M48.2048 156.943L40.3306 157.889L40.2535 157.898L40.1246 157.915L31.8124 158.914M48.2048 156.943L39.7194 170.21M45.9795 153.608L41.4316 154.157L41.4018 154.161M45.9795 153.608L47.4839 149.044M56.6103 147.287L59.9068 136.78M56.6103 147.287L47.4839 149.044M41.4018 154.161L41.2719 154.177M41.4018 154.161L42.1256 151.805M47.4839 149.044L51.3849 135.865M47.4839 149.044L42.1256 151.805M41.2719 154.177L41.1342 154.193M41.2719 154.177L42.1256 151.805M42.1256 151.805L46.5666 135.471M41.1342 154.193L38.1611 154.552M41.1342 154.193L45.7263 135.619M38.1611 154.552L19.9573 161.747M38.1611 154.552L31.8124 158.914M45.7263 135.619L46.5666 135.471M45.7263 135.619L49.8968 115.576M19.9573 161.747L3.76132 173.339L2.18282 175.092M19.9573 161.747L16.141 165.103M31.8124 158.914L16.141 165.103M31.8124 158.914L27.8681 171.611M2.18282 175.092L-9.15639 188.197M2.18282 175.092L6.47557 183.272M2.18282 175.092L16.141 165.103M16.141 165.103L16.5635 176.061M-9.15639 188.197L-9.39028 188.538L-18.6274 206.373M-9.15639 188.197L-17.1143 203.562M-9.15639 188.197L-1.71819 192.742M6.47557 183.272L-1.71819 192.742M6.47557 183.272L16.1583 196.783M6.47557 183.272L16.5635 176.061M-18.6274 206.373L-23.3359 225.692M-18.6274 206.373L-17.1143 203.562M-17.1143 203.562L-21.1703 220.219L-10.3807 215.894M-17.1143 203.562L-7.45565 203.833M-1.71819 192.742L-7.45661 203.833M-1.71819 192.742L11.9791 201.614M-23.3359 225.692L-23.2455 245.232L-18.2491 263.698M-23.3359 225.692L-21.1722 220.219L-21.0885 237.051M-18.2491 263.698L-8.62798 279.847M-18.2491 263.698L-16.7823 252.915M-23.2445 245.232L-21.0885 237.051M-21.0885 237.051L-16.7823 252.915M-21.0885 237.051L-10.2989 228.062L-10.3807 215.894M-8.62798 279.847L-2.74421 287.477L11.3978 300.682M-8.62798 279.847L5.00295 292.567M-8.62798 279.847L-8.499 266.769M-16.7823 252.915L-8.499 266.769M-16.7823 252.915L-7.17364 239.464M11.3978 300.682L28.7979 309.37M11.3978 300.682L5.00295 292.567M5.00295 292.567L21.7755 300.92M5.00295 292.567L3.22232 277.657M-8.499 266.769L3.22232 277.657M-8.499 266.769L-1.18304 249.408M28.7979 309.37L39.7704 313.704L58.772 317.202M28.7979 309.37L48.2837 312.871M28.7979 309.37L21.7755 300.92M58.772 317.202L78.28 315.38M58.772 317.202L48.2837 312.871M48.2837 312.871L68.501 310.96M48.2837 312.871L40.5664 304.268M21.7755 300.92L40.5664 304.268M21.7755 300.92L17.6213 284.776M78.28 315.38L89.3439 313.646L106.9 306.741M78.28 315.38L96.9352 308.24M78.28 315.38L68.501 310.96M106.9 306.741L122.088 295.176M106.9 306.741L96.9352 308.24M96.9352 308.24L88.032 303.637M96.9352 308.24L113.407 296.249M68.501 310.96L88.032 303.637M68.501 310.96L60.0628 302.395M122.088 295.176L129.96 287.794L140.41 273.488M122.088 295.176L133.845 279.742M122.088 295.176L113.407 296.249M140.41 273.488L146.131 260.964L151.194 245.997M140.41 273.488L146.599 256.534M140.41 273.488L133.845 279.742M133.845 279.742L126.527 280.258M133.845 279.742L141.305 261.491M113.407 296.249L105.469 291.393M113.407 296.249L126.527 280.258M151.194 245.997L154.589 231.637M151.194 245.997L151.632 229.692M151.194 245.997L146.599 256.534M146.599 256.534L141.305 261.491M146.599 256.534L148.058 238.102M154.589 231.637L157.457 214.389M154.589 231.637L154.255 217.877M151.632 229.692L148.058 238.102M151.632 229.692L154.255 217.877M151.632 229.692L147.43 213.183M157.457 214.389L158.958 200.417L162.274 203.811L167.185 208.438M157.457 214.389L156.443 203.668M154.255 217.877L156.443 203.668M154.255 217.877L149.441 203.893M167.185 208.438L154.778 195.281M167.185 208.438L173.355 211.404M156.443 203.668L156.952 198.363M156.443 203.668L151.105 192.68M88.032 303.637L105.469 291.393M88.032 303.637L78.895 295.308M60.0628 302.395L78.895 295.308M60.0628 302.395L50.4965 285.944M60.0628 302.395L40.5664 304.268M40.5664 304.268L33.7615 287.601M105.469 291.393L119.565 275.11M105.469 291.393L95.7147 283.48M78.895 295.308L95.7147 283.48M78.895 295.308L66.6309 279.833M50.4965 285.944L33.7615 287.601M50.4965 285.944L66.6309 279.833M50.4965 285.944L41.2651 262.992M126.527 280.258L119.565 275.11M126.527 280.258L135.338 261.383M119.565 275.11L129.289 255.94M119.565 275.11L109.32 267.763M95.7147 283.48L109.32 267.763M95.7147 283.48L81.051 269.669M66.6309 279.833L81.051 269.669M66.6309 279.833L52.8084 258.581M141.305 261.491L135.338 261.383M141.305 261.491L143.925 241.702M135.338 261.383L129.289 255.94M135.338 261.383L139.213 240.974M129.289 255.94L133.958 235.271M129.289 255.94L118.717 249.269M109.32 267.763L118.717 249.269M109.32 267.763L92.7242 256.183M81.051 269.669L92.7242 256.183M81.051 269.669L63.1351 251.279M139.213 240.974L133.958 235.271M139.213 240.974L143.925 241.702M133.958 235.271L133.35 214.58M133.958 235.271L123.249 229.325M118.717 249.269L123.249 229.325M118.717 249.269L100.801 240.33L104.729 223.211M92.7242 256.183L100.802 240.33L77.304 230.267M92.7242 256.183L71.505 241.612L77.304 230.267M143.925 241.702L148.058 238.102M143.925 241.702L141.587 221.772M133.35 214.58L122.696 209.363M123.249 229.325L122.696 209.363M123.249 229.325L104.729 223.211M148.058 238.102L144.723 219.48M141.587 221.772L144.723 219.48M122.696 209.363L117.073 190.79M122.696 209.363L104.304 206.066M104.729 223.211L104.304 206.066M104.729 223.211L80.1607 217.967M144.723 219.48L147.43 213.183M144.723 219.48L136.736 201.981M136.736 201.981L138.773 197.634M117.073 190.79L99.5349 190.124M104.304 206.066L99.5349 190.124M104.304 206.066L79.9028 205.636M90.7915 176.444L78.7353 165.94M90.7915 176.444L70.3076 184.342M90.7915 176.444L99.5349 190.124M99.5349 190.124L99.2047 190.182L76.5369 194.193M33.7615 287.601L17.6213 284.776M33.7615 287.601L29.2358 264.228M17.6213 284.776L3.85565 277.969L3.22232 277.657M17.6213 284.776L17.6175 262.249M147.43 213.183L149.441 203.893M147.43 213.183L138.773 197.634M138.773 197.634L140.361 190.676M149.441 203.893L151.105 192.68M149.441 203.893L140.361 190.676M140.361 190.676L141.69 182.201M140.361 190.676L127.627 179.188M127.627 179.188L128.828 173M151.105 192.68L151.129 192.404M151.105 192.68L141.69 182.201M141.69 182.201L141.963 179.322M141.69 182.201L128.828 173M128.828 173L129.783 165.014M128.828 173L113.436 165.753M129.783 165.014L114.541 159.674M129.783 165.014L134.516 167.439M129.783 165.014L130.228 159.619M113.436 165.753L114.541 159.674M114.541 159.674L114.563 159.504L115.593 151.898M114.541 159.674L98.0671 156.016M115.593 151.898L99.5435 149.065M115.593 151.898L116.664 144.031M115.593 151.898L127.612 154.85M98.0671 156.016L99.5435 149.065M99.5435 149.065L101.055 141.926M99.5435 149.065L83.6055 147.291M116.664 144.031L101.055 141.926M116.664 144.031L117.56 135.304M116.664 144.031L122.338 144.825M101.055 141.926L102.399 133.865M101.055 141.926L85.8327 139.946L85.6624 139.923M83.6055 147.291L85.6624 139.923M85.6624 139.923L87.5316 131.627M85.6624 139.923L71.6022 138.164M102.399 133.865L117.56 135.304M102.399 133.865L103.816 125.042M102.399 133.865L87.5316 131.627M87.5316 131.627L89.4758 122.34M87.5316 131.627L74.0277 128.766M71.6022 138.164L74.0277 128.766M71.6022 138.164L59.9068 136.78M74.0277 128.766L76.4984 118.271M74.0277 128.766L62.8742 125.488M59.9068 136.78L62.8742 125.488M59.9068 136.78L51.3849 135.865M62.8742 125.488L65.831 113.126M62.8742 125.488L54.8441 122.033M51.3849 135.865L54.8441 122.033M51.3849 135.865L46.5666 135.471M54.8441 122.033L58.2109 107.285M54.8441 122.033L50.4358 118.651M46.5666 135.471L50.4358 118.651M50.4358 118.651L54.1097 101.174M50.4358 118.651L49.8968 115.576M117.56 135.304H117.588M117.56 135.304L117.564 135.258M103.816 125.042L89.4758 122.34M103.816 125.042L105.388 117.041M103.816 125.042L112.882 125.732M89.4758 122.34L91.5625 113.902M89.4758 122.34L76.4984 118.271M76.4984 118.271L79.0952 108.736M76.4984 118.271L65.831 113.126M65.831 113.126L68.8898 101.893M65.831 113.126L58.2109 107.285M58.2109 107.285L61.648 93.8803M58.2109 107.285L54.1097 101.174M54.1097 101.174L53.7671 95.2221M54.1097 101.174L57.8269 85.2804M49.8968 115.576L53.7671 95.2221M211.735 169.853L209.497 165.327L209.462 165.256M211.735 169.853L213.387 176.755M211.735 169.853L217.328 175.817M209.462 165.256L208.93 164.179M209.462 165.256L209.531 165.333M213.387 176.755L206.864 164.104M213.387 176.755L213.108 184.173M213.387 176.755L219.562 182.777M217.328 175.817L219.562 182.777M217.328 175.817L222.153 175.859M217.328 175.817L213.488 169.776M208.93 164.179L208.014 162.33M208.93 164.179L212.857 166.041M209.531 165.333L213.488 169.776M209.531 165.333L212.857 166.041M208.014 162.33L206.224 158.71M208.014 162.33L211.507 159.665M212.857 166.041L218.073 170.359M212.857 166.041L217.222 162.047M206.224 158.71L205.922 158.099M206.224 158.71L211.507 159.665M211.507 159.665L217.222 162.047M211.507 159.665L215.802 151.84M205.922 158.099L205.914 158.084M205.922 158.099L210.412 150.873M205.914 158.084L203.95 152.978M205.914 158.084L206.716 163.165L206.718 163.175L206.864 164.104M210.412 150.873L215.802 151.84M210.412 150.873L215.11 139.072M210.412 150.873L205.366 150.871M203.95 152.978L203.36 151.445L203.314 151.325M203.95 152.978L205.366 150.871M206.864 164.104L205.734 170.72M203.314 151.325L202.365 148.862M203.314 151.325L205.366 150.871M205.366 150.871L210.718 138.536M202.365 148.862L201.232 145.917M202.365 148.862L207.064 138.536M201.232 145.917L200.774 144.728M201.232 145.917L204.396 139.064M207.064 138.536L210.718 138.536M207.064 138.536L213.275 122.339M207.064 138.536L204.396 139.064M200.774 144.728L199.584 141.635M200.774 144.728L202.895 140.083M204.396 139.064L211.276 121.534M204.396 139.064L202.895 140.083M199.584 141.635L193.419 121.731M199.584 141.635L199.697 145.973M202.895 140.083L210.372 121.016M193.419 121.731L187.209 100.227M193.419 121.731L192.638 123.743M187.209 100.227L181.566 79.2657M187.209 100.227L185.477 99.4657M192.638 123.743L185.477 99.4648M192.638 123.743L189.524 126.589M192.638 123.743L199.697 145.972M181.566 79.2657L176.39 60.137M181.566 79.2657L178.906 75.639M176.39 60.137L171.88 45.4406M176.39 60.137L172.849 53.7941M178.906 75.639L172.849 53.7941M178.906 75.639L173.742 73.2145M178.906 75.639L185.477 99.4648M171.88 45.4406L168.265 35.3199L163.218 25.1241M171.88 45.4406L167.528 36.8522M172.849 53.7941L167.528 36.8522M172.849 53.7941L166.751 48.8796M163.218 25.1241L159.456 20.4329L151.154 11.2507M163.218 25.1241L155.554 16.7215M163.218 25.1241L167.528 36.8522M167.528 36.8522L160.581 29.8876M151.154 11.2507L140.784 4.58921M151.154 11.2507L155.554 16.7215M155.554 16.7215L145.789 10.7049M155.554 16.7215L160.581 29.8876M140.784 4.58921L129.07 0.866257M140.784 4.58921L145.647 10.5326L145.789 10.7059M129.07 0.866257L116.788 0.386932M129.07 0.866257L134.605 7.46323M116.788 0.386932L104.785 3.19166M116.788 0.386932L122.753 7.27555M134.605 7.46323L145.789 10.7049M134.605 7.46323L122.753 7.27555M134.605 7.46323L140.927 22.6524M104.785 3.19166L100.001 4.73358L88.9021 10.5134M104.785 3.19166L93.884 9.0812M104.785 3.19166L111.063 10.165M122.753 7.27555L111.063 10.165M122.753 7.27555L129.575 22.9191M88.9021 10.5134L79.7613 19.0161M88.9021 10.5134L93.884 9.0812M93.884 9.0812L100.348 15.9178M111.063 10.165L100.348 15.9178M111.063 10.165L118.245 25.8422M79.7613 19.0161L73.2105 29.671M79.7613 19.0161L84.8452 17.6657M73.2105 29.671L68.707 37.2555L65.2324 48.6091M73.2105 29.671L69.6618 41.7369M73.2105 29.671L78.2954 28.3543M84.8452 17.6657L78.2954 28.3543M84.8452 17.6657L91.3671 24.1462M84.8452 17.6657L93.884 9.08023M65.2324 48.6091L61.238 60.9676L57.6536 76.6959L53.7671 95.2221M65.2324 48.6091L65.1592 60.6086M65.2324 48.6091L69.6618 41.7369M69.6618 41.7369L69.4144 54.413M69.6618 41.7369L74.6437 40.3894M78.2954 28.3543L74.6437 40.3894M78.2954 28.3543L84.7432 34.2679M65.1592 60.6086L61.2919 71.534M65.1592 60.6086L68.5183 72.4272M65.1592 60.6086L69.4134 54.413M61.2389 60.9686L61.2919 71.534M61.2919 71.534L57.8269 85.2804M61.2919 71.534L64.8868 82.0012M57.6536 76.6939L57.8269 85.2804M57.8269 85.2804L61.648 93.8803M105.388 117.041L91.5625 113.902M105.388 117.041L108.895 117.25M105.388 117.041L106.383 111.906M91.5625 113.902L93.5693 105.772M91.5625 113.902L79.0952 108.736M79.0952 108.736L81.5833 99.7612M79.0952 108.736L68.8898 101.893M68.8898 101.893L71.7976 91.6406M68.8898 101.893L61.648 93.8803M61.648 93.8803L64.8868 82.0012M93.5693 105.772L81.5833 99.7612M93.5693 105.772L95.9294 98.9354M93.5693 105.772L104.898 108.745M81.5833 99.7612L84.44 92.297M81.5833 99.7612L71.7976 91.6406M71.7976 91.6406L75.0884 83.2457M71.7976 91.6406L64.8868 82.0012M64.8868 82.0012L68.5183 72.4272M95.9294 98.9354L84.44 92.297M95.9294 98.9354L100.888 100.405M95.9294 98.9354L98.2259 94.8833M84.44 92.297L87.5691 87.5038M84.44 92.297L75.0884 83.2457M75.0884 83.2457L78.6814 78.1184M75.0884 83.2457L68.5183 72.4272M68.5183 72.4272L72.4935 66.8254M87.5691 87.5038L78.6814 78.1184M87.5691 87.5038L91.0841 85.4248M87.5691 87.5038L97.709 93.8101M78.6814 78.1184L82.7027 76.282M78.6814 78.1184L72.4935 66.8254M72.4935 66.8254L76.9383 65.2075M72.4935 66.8254L69.4134 54.413M69.4134 54.413L74.1826 52.9645M91.0841 85.4248L82.7027 76.282M91.0841 85.4248L94.4019 87.5221M91.0841 85.4248L93.6377 86.2708M82.7027 76.282L87.6326 78.6218M82.7027 76.282L76.9383 65.2075M76.9383 65.2075L82.4111 68.5223M76.9383 65.2075L74.1826 52.9645M74.1826 52.9645L80.0991 57.2466M74.1826 52.9645L74.6437 40.3894M74.6437 40.3894L80.8884 45.558M87.6326 78.6218L93.1583 85.4854M87.6326 78.6218L82.4111 68.5223M82.4111 68.5223L88.5585 77.0587L93.1583 85.4854M82.4111 68.5223L80.0991 57.2466M80.0991 57.2466L86.7721 67.4972M80.0991 57.2466L80.8884 45.558M80.8884 45.558L87.9637 57.443M80.8884 45.558L84.7432 34.2679M84.7432 34.2679L92.0774 47.5966M84.7432 34.2679L91.3671 24.1462M94.4019 87.5221L95.0246 88.5404M94.4019 87.5221L93.6377 86.2708M93.6377 86.2708L93.1583 85.4854M86.7721 67.4972L94.887 83.0763M86.7721 67.4972L87.9637 57.443M87.9637 57.443L96.5867 75.2396M87.9637 57.443L92.0774 47.5966M92.0774 47.5966L101.036 67.3461M92.0774 47.5966L98.8092 38.6338M91.3671 24.1462L98.8092 38.6338M91.3671 24.1462L100.348 15.9178M98.8092 38.6338L107.916 59.9397M98.8092 38.6338L107.74 31.2043M100.348 15.9178L107.74 31.2043M107.74 31.2043L116.793 53.5612M107.74 31.2043L118.245 25.8422M118.245 25.8422L127.04 48.6717M118.245 25.8422L129.575 22.9191M145.789 10.7049L151.501 25.0462L160.581 29.8876M160.581 29.8876L166.751 48.8777M94.887 83.0763L95.9929 90.1275L96.0227 90.3143M94.887 83.0763L104.056 103.33M94.887 83.0763L96.5867 75.2415M101.036 67.3461L96.5867 75.2415M101.036 67.3461L111.185 92.6214M101.036 67.3461L107.916 59.9416L118.238 87.1063M116.793 53.5612L107.916 59.9387M116.793 53.5612L127.051 82.0089M116.793 53.5612L127.04 48.6717M127.04 48.6717L137 77.6997M127.04 48.6717L137.923 45.6158M129.575 22.9191L137.923 45.6177M129.575 22.9191L140.927 22.6524M140.927 22.6524L148.664 44.6244M140.927 22.6524L151.501 25.0481L158.495 45.7534L166.751 48.8796M166.751 48.8796L173.742 73.2164M96.5867 75.2415L106.343 98.1577M118.238 87.1063L111.185 92.6195M118.238 87.1063L129.756 117.359M118.238 87.1063L127.051 82.0089M127.051 82.0089L138.433 113.476M127.051 82.0089L137 77.6997M137 77.6997L147.986 109.632M137 77.6997L147.367 74.486M137.923 45.6158L147.367 74.486M137.923 45.6158L148.664 44.6225M147.367 74.486L157.726 106.104M147.367 74.486L157.409 72.6023M148.664 44.6225L157.409 72.6023M148.664 44.6225L158.495 45.7515L166.402 72.1798M157.409 72.6023L166.947 103.147M157.409 72.6023L166.402 72.1798M166.402 72.1798L173.742 73.2145M166.402 72.1798L174.99 100.972M173.742 73.2145L181.317 99.714M181.317 99.714L174.99 100.972M181.317 99.714L189.524 126.589M181.317 99.714L185.477 99.4648M104.056 103.328L104.447 107.786M104.056 103.328L114.438 126.599M104.056 103.328L106.343 98.1558M114.438 126.599L114.031 128.174M114.438 126.599L125.85 150.552M114.438 126.599L117.341 124.155M106.343 98.1558L117.341 124.155M106.343 98.1558L111.185 92.6195M117.341 124.155L129.391 150.724M117.341 124.155L122.569 121M111.185 92.6195L122.569 121M122.569 121L135.004 149.849M122.569 121L129.756 117.359M129.756 117.359L142.299 147.989M129.756 117.359L138.433 113.476M138.433 113.476L150.792 145.256M138.433 113.476L147.986 109.632M147.986 109.632L159.884 141.839M147.986 109.632L157.726 106.104M157.726 106.104L168.918 137.984M157.726 106.104L166.947 103.147M166.947 103.147L177.244 133.968M166.947 103.147L174.99 100.972M174.99 100.972L184.268 130.08M189.524 126.589L184.268 130.08M189.524 126.589L197.597 151.012M125.85 150.552L124.602 149.361M125.85 150.552L137.775 173.156L141.873 175.461M125.85 150.552L129.391 150.724M129.391 150.724L141.873 175.461M129.391 150.724L135.004 149.849M135.004 149.849L147.777 176.418M135.004 149.849L142.299 147.989M142.299 147.989L155.073 175.966M142.299 147.989L150.792 145.256M150.792 145.256L163.276 174.104M150.792 145.256L159.884 141.839M159.884 141.839L171.807 170.956M159.884 141.839L168.918 137.984M168.918 137.984L180.056 166.751M168.918 137.984L177.244 133.968M177.244 133.968L187.43 161.783M177.244 133.968L183.956 130.252L184.268 130.08M184.268 130.08L193.407 156.408L197.597 151.012M197.597 151.012L205.734 170.72M197.597 151.012L199.697 145.972M199.697 145.972L206.469 163.102L206.479 163.128L206.864 164.103M141.873 175.461L154.778 195.281M141.873 175.461L147.777 176.418M147.777 176.418L160.888 197.549M147.777 176.418L155.073 175.966M155.073 175.966L168.1 198.109M155.073 175.966L163.276 174.104M163.276 174.104L175.933 196.884M163.276 174.104L171.807 170.956M171.807 170.956L183.837 193.951M171.807 170.956L180.056 166.751M180.056 166.751L191.254 189.517M180.056 166.751L187.43 161.784M205.734 170.72L202.586 177.472M205.734 170.72L213.108 184.173M154.778 195.281L150.197 191.449M154.778 195.281L160.888 197.549M160.888 197.549L173.355 211.404M160.888 197.549L168.1 198.109M168.1 198.109L180.358 212.517M168.1 198.109L175.933 196.885M183.837 193.951L175.933 196.885M183.837 193.951L194.944 208.895M183.837 193.951L191.254 189.517M191.254 189.517L201.51 204.406M191.254 189.517L197.653 183.89M187.43 161.784L188.763 164.666L188.788 164.721L189.236 165.688L189.271 165.764L197.653 183.89M187.43 161.784L193.407 156.409L202.586 177.472M197.653 183.89L206.959 198.5M197.653 183.89L202.586 177.472M202.586 177.472L210.908 191.591M213.108 184.173L210.908 191.591M213.108 184.173L220.024 190.178M173.355 211.404L180.358 212.517M173.355 211.404L185.352 216.078L192.048 217.385M180.358 212.517L192.048 217.385M180.358 212.517L187.726 211.664M175.933 196.885L187.726 211.664M187.726 211.664L198.883 216.755M187.726 211.664L194.944 208.895M194.944 208.895L205.385 214.223M194.944 208.895L201.51 204.406M201.51 204.406L211.106 209.962M201.51 204.406L206.959 198.5M206.959 198.5L215.643 204.258M206.959 198.5L210.766 191.839L210.908 191.591M210.908 191.591L218.679 197.505M220.024 190.178L218.679 197.505M220.024 190.178L225.876 188.817M220.024 190.178L219.562 182.777M219.562 182.777L224.818 182.157M192.048 217.385L198.883 216.755M198.883 216.755L205.385 214.223M205.385 214.223L211.106 209.962M205.385 214.223L214.419 210.17L219.33 206.432M211.106 209.962L219.33 206.432M211.106 209.962L215.643 204.258M215.643 204.258L223.029 201.386M215.643 204.258L218.679 197.505M218.679 197.505L225.256 195.374M225.876 188.817L225.256 195.374M225.876 188.817L231.055 180.502M225.876 188.817L224.818 182.157M224.818 182.157L229.521 175.163M224.818 182.157L222.153 175.859M222.153 175.859L226.552 170.079M222.153 175.859L218.073 170.359M213.488 169.776L218.073 170.359M219.33 206.432L223.029 201.386M223.029 201.386L225.256 195.374M223.029 201.386L229.543 190.473M225.256 195.374L231.052 185.722M231.055 180.502L231.052 185.722M231.055 180.502L235.357 166.799M231.055 180.502L229.521 175.163M229.521 175.163L233.464 163.115M229.521 175.163L226.552 170.079M226.552 170.079L230.307 159.54M226.552 170.079L222.358 165.601M218.073 170.359L222.358 165.601M231.052 185.722L229.543 190.473M231.052 185.722L235.864 170.337M229.543 190.473L234.979 173.493L235.864 170.337M235.864 170.337L235.357 166.799M235.864 170.337L239.979 151.077M235.357 166.799L239.044 149.333M235.357 166.799L233.464 163.115M233.464 163.115L236.883 147.37M233.464 163.115L230.307 159.54M230.307 159.54L233.639 145.327M230.307 159.54L226.11 156.324M222.358 165.601L226.11 156.324M222.358 165.601L217.222 162.047M226.11 156.324L229.537 143.343M226.11 156.324L221.159 153.696M217.222 162.047L221.159 153.696M221.159 153.696L224.861 141.562M221.159 153.696L215.802 151.84M239.044 149.333L239.979 151.077M239.044 149.333L242.493 130.442M239.044 149.333L236.883 147.37M236.883 147.37L240.137 130.004M236.883 147.37L233.639 145.327M233.639 145.327L236.879 129.267M233.639 145.327L229.537 143.343M229.537 143.343L232.948 128.281M229.537 143.343L224.861 141.562M224.861 141.562L228.614 127.115M224.861 141.562L219.937 140.105M215.802 151.84L219.937 140.105M219.937 140.105L224.181 125.849M219.937 140.105L215.11 139.072M239.979 151.077L243.791 130.552M239.979 151.077L243.962 130.332M242.493 130.442L243.791 130.552M242.493 130.442L245.634 112.398M242.493 130.442L240.137 130.004M240.137 130.004L243.152 113.064M240.137 130.004L236.879 129.267M236.879 129.267L239.961 113.207M236.879 129.267L232.948 128.281M232.948 128.281L236.28 112.818M232.948 128.281L228.614 127.115M228.614 127.115L232.365 111.92M228.614 127.115L224.181 125.849M224.181 125.849L224.322 125.35L228.488 110.576M224.181 125.849L219.956 124.574M215.11 139.072L219.956 124.574M215.11 139.072L210.718 138.536M219.956 124.574L224.913 108.884M219.956 124.574L216.234 123.375M210.718 138.536L216.234 123.375M216.234 123.375L221.895 106.957M216.234 123.375L213.275 122.339M243.791 130.552L243.962 130.332M243.791 130.552L247.235 111.255M243.962 130.332L247.865 109.725M247.235 111.255L245.634 112.398M247.235 111.255L247.865 109.725M247.235 111.255L251.179 95.6225M245.634 112.398L249.346 97.4204M245.634 112.398L243.152 113.064M243.152 113.064L246.828 98.6139M243.152 113.064L239.961 113.207M239.961 113.207L243.794 99.1183M239.961 113.207L236.28 112.818M236.28 112.818L240.457 98.8998M236.28 112.818L232.365 111.92M232.365 111.92L237.045 97.971M232.365 111.92L228.488 110.576M228.488 110.576L233.795 96.3944M228.488 110.576L224.913 108.884M224.913 108.884L225.081 108.478L230.926 94.2865M224.913 108.884L221.895 106.957M221.895 106.957L228.641 91.7879M221.895 106.957L219.639 104.931M213.275 122.339L219.639 104.931M213.275 122.339L211.276 121.534M219.639 104.931L227.097 89.0698M219.639 104.931L218.296 102.944M211.276 121.534L218.296 102.944M211.276 121.534L210.372 121.016M218.296 102.944L226.394 86.3218M218.296 102.944L217.955 101.135M210.372 121.016L217.955 101.135M249.346 97.4204L251.179 95.6225M249.346 97.4204L253.697 87.2468M249.346 97.4204L246.828 98.6139M246.828 98.6139L251.242 88.4807M246.828 98.6139L243.794 99.1183M243.794 99.1183L248.473 88.9639M243.794 99.1183L240.457 98.8998M240.457 98.8998L245.578 88.6636M240.457 98.8998L237.045 97.971M237.045 97.971L242.758 87.5981M237.045 97.971L233.795 96.3944M233.795 96.3944L240.206 85.8386M233.795 96.3944L230.926 94.2865M230.926 94.2865L238.091 83.5152M230.926 94.2865L228.641 91.7879M228.641 91.7879L236.563 80.7778M228.641 91.7879L227.097 89.0698M227.097 89.0698L235.731 77.8172M227.097 89.0698L226.394 86.3218M226.394 86.3218L235.643 74.8353M226.394 86.3218L226.583 83.7327M217.955 101.135L226.583 83.7327M217.955 101.135L218.637 99.6245L227.646 81.4776M247.865 109.725L252.196 93.4145M251.179 95.6225L255.269 86.2593M251.179 95.6225L252.196 93.4145M253.697 87.2468L254.32 86.855L255.269 86.2593M253.697 87.2468L251.242 88.4807M251.242 88.4807L255.42 85.7597M251.242 88.4807L248.473 88.9639M248.473 88.9639L254.204 85.2987M248.473 88.9639L245.578 88.6636M245.578 88.6636L245.774 88.5471L252.35 84.5961M245.578 88.6636L242.758 87.5981M242.758 87.5981L250.222 83.5267M242.758 87.5981L240.206 85.8386M240.206 85.8386L248.432 81.8635M240.206 85.8386L238.091 83.5152M238.091 83.5152L247.097 79.7287M238.091 83.5152L236.563 80.7778M236.563 80.7778L246.313 77.2589M236.563 80.7778L235.731 77.8172M235.731 77.8172L246.137 74.6246M235.731 77.8172L235.643 74.8353M235.643 74.8353L246.577 72.0066M235.643 74.8353L236.312 72.0374M226.583 83.7327L236.312 72.0374M226.583 83.7327L227.646 81.4776M227.646 81.4776L227.774 81.3274L237.688 69.6167M236.312 72.0374L247.606 69.5839M236.312 72.0374L237.688 69.6167M252.196 93.4145L255.584 86.0619M255.269 86.2593L255.578 86.0648L255.584 86.0619M255.584 86.0619L255.822 85.9118M255.42 85.7597L255.478 85.7819L255.675 85.8569H255.678L255.822 85.9118M255.42 85.7597L255.29 85.7116L254.204 85.2987M254.204 85.2987L252.35 84.5961M252.35 84.5961L250.222 83.5267M250.222 83.5267L255.472 85.5355L255.774 85.65L260.223 87.3507M250.222 83.5267L248.432 81.8635M248.432 81.8635L248.768 81.9983L255.896 84.8521L255.936 84.8685L259.186 86.1697M248.432 81.8635L247.097 79.7287M247.097 79.7287L256.548 83.7808L256.62 83.8116L257.876 84.3497L258.133 84.4603L258.568 84.6461M247.097 79.7287L246.313 77.2589M246.313 77.2589L258.418 82.8799M246.313 77.2589L246.137 74.6246M246.137 74.6246L258.747 80.9905M246.137 74.6246L246.577 72.0066M246.577 72.0066L259.531 79.1088M246.577 72.0066L247.606 69.5839M247.606 69.5839L260.72 77.3638M247.606 69.5839L249.155 67.5252M237.688 69.6167L249.155 67.5252M237.688 69.6167L239.668 67.7282M255.822 85.9118L260.629 87.7328M260.629 87.7328L272.605 98.9883M260.629 87.7328L260.223 87.3507M260.223 87.3507L259.186 86.1697M259.186 86.1697L260.718 87.6202L260.976 87.8647L272.211 98.5023M259.186 86.1697L258.568 84.6461M258.568 84.6461L272.153 97.7814M258.568 84.6461L258.531 84.2101L258.519 84.0725L258.418 82.8799M258.418 82.8799L272.438 96.8718M258.418 82.8799L258.747 80.9905M258.747 80.9905L273.051 95.8371M258.747 80.9905L259.531 79.1088M259.531 79.1088L273.946 94.7456L275.063 93.6763M259.531 79.1088L260.72 77.3638M260.72 77.3638L275.063 93.6763M260.72 77.3638L262.23 75.8768M249.155 67.5252L262.23 75.8768M249.155 67.5252L251.107 65.963M239.668 67.7282L251.107 65.963M239.668 67.7282L242.125 66.5078M262.23 75.8768L276.328 92.6993M262.23 75.8768L263.956 74.7449M251.107 65.963L251.277 66.0785L263.956 74.7449M251.107 65.963L253.339 65.0121M272.605 98.9883L277.48 104.633L286.953 115.656M272.605 98.9883L272.211 98.5023M272.211 98.5023L272.153 97.7814M272.153 97.7814L287.198 115.579M272.153 97.7814L272.438 96.8718M272.438 96.8718L287.647 115.337M272.438 96.8718L273.051 95.8371M273.051 95.8371L288.268 114.948M273.051 95.8371L273.946 94.7466L289.018 114.437M275.063 93.6763L289.847 113.841M275.063 93.6763L276.328 92.6993M276.328 92.6993L290.697 113.199M276.328 92.6993L277.649 91.8803M263.956 74.7449L277.649 91.8803M263.956 74.7449L265.782 74.0509M253.339 65.0121L265.782 74.0509M253.339 65.0121L242.125 66.5078M253.339 65.0121L255.696 64.7349M253.339 65.0121L244.891 66.0381L242.125 66.5078M277.649 91.8803L291.511 112.556M277.649 91.8803L278.94 91.2797M265.782 74.0509L278.94 91.2797M265.782 74.0509L267.582 73.8401M255.696 64.7349L267.582 73.8401M255.696 64.7349L258.016 65.1487M278.94 91.2797L292.232 111.955M278.94 91.2797L280.11 90.936M267.582 73.8401L280.11 90.936M267.582 73.8401L269.232 74.1269M286.953 115.656L287.198 115.579M286.953 115.656L302.42 131.205L302.67 131.35M287.198 115.579L302.67 131.35M287.198 115.579L287.647 115.337M287.647 115.337L302.998 131.379M287.647 115.337L288.268 114.948M288.268 114.948L303.379 131.296M288.268 114.948L289.018 114.437M289.018 114.437L303.79 131.103M289.018 114.437L289.847 113.841M289.847 113.841L304.2 130.813M289.847 113.841L290.697 113.199M290.697 113.199L304.583 130.448M290.697 113.199L291.511 112.556M291.511 112.556L304.912 130.032M291.511 112.556L292.232 111.955M292.232 111.955L305.165 129.593M292.232 111.955L292.812 111.439M280.11 90.936L292.812 111.439M280.11 90.936L281.081 90.8735M269.232 74.1269L258.016 65.1487M269.232 74.1269L281.081 90.8735M269.232 74.1269L270.62 74.8921M258.016 65.1487L260.14 66.2267L270.62 74.8921M292.812 111.439L305.324 129.162M292.812 111.439L293.209 111.042M281.081 90.8735L293.209 111.042M281.081 90.8735L281.782 91.0968M270.62 74.8921L281.782 91.0968M270.62 74.8921L271.65 76.0818L282.17 91.5886M293.209 111.042L305.38 128.767M293.209 111.042L293.398 110.791M281.782 91.0968L293.398 110.791M281.782 91.0968L282.17 91.5886M282.17 91.5886L293.365 110.704M293.398 110.791L305.327 128.436M293.398 110.791L293.365 110.704M302.67 131.35L302.998 131.379M302.67 131.35L317.509 138.323M302.998 131.379L317.509 138.323M302.998 131.379L303.379 131.296M303.379 131.296L303.76 131.485L317.509 138.323M303.379 131.296L303.79 131.103M303.79 131.103L317.509 138.323M303.79 131.103L304.2 130.813M304.2 130.813L317.509 138.323M304.2 130.813L304.583 130.448M304.583 130.448L317.509 138.323M304.583 130.448L304.912 130.032M304.912 130.032L317.509 138.323M304.912 130.032L305.165 129.593M305.165 129.593L317.509 138.323M305.165 129.593L305.324 129.162M305.324 129.162L317.509 138.323M305.324 129.162L305.38 128.767M305.38 128.767L317.509 138.323M305.38 128.767L305.327 128.436M305.327 128.436L305.168 128.192M305.327 128.436L317.509 138.323M293.365 110.704L305.168 128.192M317.509 138.323L305.168 128.192M3.22232 277.657L7.2706 257.193M17.6175 262.249L7.2706 257.193M17.6175 262.249L29.2358 264.228M17.6175 262.249L21.8457 236.945M7.2706 257.193L16.6126 234.424M7.2706 257.193L-1.18304 249.408M-1.18304 249.408L12.3054 230.501M-1.18304 249.408L-7.17364 239.464M29.2358 264.228L41.2651 262.992M29.2358 264.228L27.7824 237.924M21.8457 236.945L16.6126 234.424M21.8457 236.945L27.7815 237.924M21.8457 236.945L29.0241 213.268M16.6126 234.424L29.0241 213.268M16.6126 234.424L12.3054 230.501M41.2651 262.992L52.8084 258.581M41.2651 262.992L33.9145 237.267M27.7815 237.924L29.2021 213.043M27.7815 237.924L33.9145 237.267M29.0241 213.268L29.0847 213.15M12.3054 230.501L9.23988 225.469M12.3054 230.501L29.0847 213.15M-7.17364 239.464L9.23988 225.469M-7.17364 239.464L-10.2998 228.062L7.63539 219.703M29.2021 213.043L29.0847 213.15M29.2021 213.043L7.57571 213.455M29.2021 213.043L29.1088 212.931M29.2021 213.043L33.1349 190.163M29.2021 213.043L29.3195 212.935M29.2021 213.043L53.5553 214.484M29.2021 213.043L29.2955 213.154M33.9145 237.267L39.7184 235.031M33.9145 237.267L29.3301 213.275M29.0847 213.15L28.9644 213.197M9.23988 225.469L28.9644 213.197M9.23988 225.469L7.63539 219.703M28.9644 213.197L7.63539 219.703M7.63539 219.703L7.57571 213.455M7.57571 213.455L-10.3807 215.894M7.57571 213.455L9.06855 207.252M29.1088 212.931L29.077 212.811L27.049 190.863M29.1088 212.931L29.001 212.879M29.1088 212.931L16.1583 196.783M33.1349 190.163L27.049 190.863M33.1349 190.163L39.7194 170.21M33.1349 190.163L39.0543 191.08M29.3195 212.935L29.4399 212.889M29.3195 212.935L29.3811 212.817M29.3195 212.935L48.6562 197.408M53.5553 214.484L53.4494 208.194M53.5553 214.484L80.1607 217.967M53.5553 214.484L52.0808 220.748M29.2955 213.154L29.3301 213.275M29.2955 213.154L29.4052 213.206M29.2955 213.154L44.9284 231.334M-10.3807 215.894L-7.45565 203.833M-7.45565 203.833L9.06855 207.252M9.06855 207.252L29.001 212.879M9.06855 207.252L11.9791 201.614M29.001 212.879L11.9791 201.614M11.9791 201.614L16.1583 196.783M16.1583 196.783L21.3077 193.109M21.3077 193.109L29.0751 212.811M21.3077 193.109L27.049 190.863M21.3077 193.109L16.5635 176.061M27.049 190.863L27.1366 188.792L27.1395 188.754L27.8681 171.611M16.5635 176.061L27.8681 171.611M27.8681 171.611L36.5489 170.585L36.5874 170.58L39.7194 170.21M39.7194 170.21L51.2713 171.951M51.2713 171.951L39.0543 191.08M51.2713 171.951L61.6807 176.755M39.0543 191.08L29.3811 212.817M39.0543 191.08L44.3047 193.537M78.7353 165.94L61.6807 176.755M61.6807 176.755L44.3047 193.537M61.6807 176.755L70.3076 184.342M29.3811 212.817L44.3047 193.537M44.3047 193.537L48.6562 197.408M70.3076 184.342L48.6571 197.408M70.3076 184.342L76.5369 194.193M29.4399 212.889L51.7824 202.416M29.4399 212.889L53.4494 208.194M48.6562 197.408L51.7824 202.416M51.7824 202.416L53.4494 208.194M51.7824 202.416L76.5369 194.193M53.4494 208.194L79.9028 205.636M76.5369 194.193L79.9028 205.636M79.9028 205.636L80.1607 217.967M80.1607 217.967L77.3021 230.267M52.0808 220.748L77.304 230.267M52.0808 220.748L29.4052 213.206M52.0808 220.748L49.1548 226.451M29.4052 213.206L49.1548 226.451M49.1548 226.451L71.503 241.612L63.1351 251.279M49.1548 226.451L44.9284 231.334M63.1351 251.279L44.9284 231.334M63.1351 251.279L52.8084 258.581M29.3301 213.275L39.7184 235.031M44.9284 231.334L39.7184 235.031M39.7184 235.031L52.8084 258.581" stroke="url(#paint0_linear_448_1146)" stroke-width="0.9625" stroke-linecap="round" stroke-linejoin="round"/>
</g>
</g>
</g>
<defs>
<linearGradient id="paint0_linear_448_1146" x1="30.7999" y1="255.544" x2="259.394" y2="-36.0937" gradientUnits="userSpaceOnUse">
<stop stop-color="#E9EBF1" stop-opacity="0"/>
<stop offset="1" stop-color="#111929" stop-opacity="0.42"/>
</linearGradient>
<clipPath id="clip0_448_1146">
<rect width="308" height="308" fill="white"/>
</clipPath>
<clipPath id="clip1_448_1146">
<rect width="333.025" height="308" fill="white" transform="translate(-12.5117)"/>
</clipPath>
</defs>
</svg>
