<svg width="515" height="393" viewBox="0 0 515 393" fill="none" xmlns="http://www.w3.org/2000/svg">
<g filter="url(#filter0_f_312_370)">
<rect x="372.693" y="2" width="14" height="150" fill="url(#paint0_linear_312_370)"/>
</g>
<path d="M321.883 16C321.883 8.26803 328.151 2 335.883 2H372.244V78.6859H335.883C328.151 78.6859 321.883 72.4179 321.883 64.6859V16Z" fill="#282C4B" fill-opacity="0.63"/>
<g filter="url(#filter1_di_312_370)">
<path d="M373.941 78.779C334.212 78.779 322.121 55.1002 322.121 40.6619V164.537C322.121 171.717 327.941 177.537 335.121 177.537H497.4C504.579 177.537 510.4 171.717 510.4 164.537V91.779C510.4 84.5993 504.579 78.779 497.4 78.779H373.941Z" fill="#282C4B"/>
</g>
<path d="M392.947 126H391.083L395.271 114.364H397.299L401.487 126H399.623L396.333 116.477H396.242L392.947 126ZM393.259 121.443H399.305V122.92H393.259V121.443ZM404.923 114.364V126H403.167V114.364H404.923ZM411.714 126V114.364H415.862C416.767 114.364 417.517 114.528 418.112 114.858C418.706 115.187 419.151 115.638 419.447 116.21C419.742 116.778 419.89 117.419 419.89 118.131C419.89 118.847 419.74 119.491 419.441 120.062C419.146 120.631 418.699 121.081 418.1 121.415C417.506 121.744 416.758 121.909 415.856 121.909H413.004V120.42H415.697C416.269 120.42 416.733 120.322 417.089 120.125C417.445 119.924 417.706 119.652 417.873 119.307C418.04 118.962 418.123 118.57 418.123 118.131C418.123 117.691 418.04 117.301 417.873 116.96C417.706 116.619 417.443 116.352 417.083 116.159C416.727 115.966 416.258 115.869 415.674 115.869H413.47V126H411.714ZM421.812 126V117.273H423.454V118.659H423.545C423.704 118.189 423.984 117.82 424.386 117.551C424.791 117.278 425.249 117.142 425.761 117.142C425.867 117.142 425.992 117.146 426.136 117.153C426.284 117.161 426.399 117.17 426.482 117.182V118.807C426.414 118.788 426.293 118.767 426.119 118.744C425.945 118.718 425.77 118.705 425.596 118.705C425.195 118.705 424.837 118.79 424.522 118.96C424.212 119.127 423.965 119.36 423.784 119.659C423.602 119.955 423.511 120.292 423.511 120.67V126H421.812ZM431.316 126.176C430.498 126.176 429.784 125.989 429.174 125.614C428.564 125.239 428.091 124.714 427.754 124.04C427.417 123.366 427.248 122.578 427.248 121.676C427.248 120.771 427.417 119.979 427.754 119.301C428.091 118.623 428.564 118.097 429.174 117.722C429.784 117.347 430.498 117.159 431.316 117.159C432.134 117.159 432.848 117.347 433.458 117.722C434.068 118.097 434.542 118.623 434.879 119.301C435.216 119.979 435.384 120.771 435.384 121.676C435.384 122.578 435.216 123.366 434.879 124.04C434.542 124.714 434.068 125.239 433.458 125.614C432.848 125.989 432.134 126.176 431.316 126.176ZM431.322 124.75C431.852 124.75 432.292 124.61 432.64 124.33C432.989 124.049 433.246 123.676 433.413 123.21C433.583 122.744 433.669 122.231 433.669 121.67C433.669 121.114 433.583 120.602 433.413 120.136C433.246 119.667 432.989 119.29 432.64 119.006C432.292 118.722 431.852 118.58 431.322 118.58C430.788 118.58 430.345 118.722 429.992 119.006C429.644 119.29 429.384 119.667 429.214 120.136C429.047 120.602 428.964 121.114 428.964 121.67C428.964 122.231 429.047 122.744 429.214 123.21C429.384 123.676 429.644 124.049 429.992 124.33C430.345 124.61 430.788 124.75 431.322 124.75ZM440.548 126.17C439.843 126.17 439.214 125.991 438.661 125.631C438.112 125.267 437.68 124.75 437.366 124.08C437.055 123.405 436.9 122.597 436.9 121.653C436.9 120.71 437.057 119.903 437.372 119.233C437.69 118.562 438.125 118.049 438.678 117.693C439.231 117.337 439.858 117.159 440.559 117.159C441.101 117.159 441.536 117.25 441.866 117.432C442.199 117.61 442.457 117.818 442.639 118.057C442.824 118.295 442.968 118.506 443.07 118.688H443.173V114.364H444.872V126H443.213V124.642H443.07C442.968 124.828 442.82 125.04 442.627 125.278C442.438 125.517 442.177 125.725 441.843 125.903C441.51 126.081 441.078 126.17 440.548 126.17ZM440.923 124.722C441.411 124.722 441.824 124.593 442.161 124.335C442.502 124.074 442.76 123.712 442.934 123.25C443.112 122.788 443.201 122.25 443.201 121.636C443.201 121.03 443.114 120.5 442.94 120.045C442.766 119.591 442.51 119.237 442.173 118.983C441.836 118.729 441.419 118.602 440.923 118.602C440.411 118.602 439.985 118.735 439.644 119C439.303 119.265 439.046 119.627 438.872 120.085C438.701 120.544 438.616 121.061 438.616 121.636C438.616 122.22 438.703 122.744 438.877 123.21C439.052 123.676 439.309 124.045 439.65 124.318C439.995 124.587 440.419 124.722 440.923 124.722ZM452.825 122.381V117.273H454.529V126H452.859V124.489H452.768C452.567 124.955 452.245 125.343 451.802 125.653C451.363 125.96 450.815 126.114 450.16 126.114C449.599 126.114 449.103 125.991 448.671 125.744C448.243 125.494 447.906 125.125 447.66 124.636C447.418 124.148 447.296 123.544 447.296 122.824V117.273H448.995V122.619C448.995 123.214 449.16 123.687 449.49 124.04C449.819 124.392 450.247 124.568 450.774 124.568C451.092 124.568 451.408 124.489 451.722 124.33C452.041 124.17 452.304 123.93 452.512 123.608C452.724 123.286 452.829 122.877 452.825 122.381ZM460.488 126.176C459.643 126.176 458.916 125.985 458.306 125.602C457.7 125.216 457.234 124.684 456.909 124.006C456.583 123.328 456.42 122.551 456.42 121.676C456.42 120.79 456.587 120.008 456.92 119.33C457.253 118.648 457.723 118.116 458.329 117.733C458.935 117.35 459.649 117.159 460.471 117.159C461.134 117.159 461.725 117.282 462.244 117.528C462.763 117.771 463.181 118.112 463.499 118.551C463.821 118.991 464.013 119.504 464.073 120.091H462.42C462.329 119.682 462.121 119.33 461.795 119.034C461.473 118.739 461.041 118.591 460.499 118.591C460.026 118.591 459.611 118.716 459.255 118.966C458.903 119.212 458.628 119.564 458.431 120.023C458.234 120.477 458.136 121.015 458.136 121.636C458.136 122.273 458.232 122.822 458.426 123.284C458.619 123.746 458.892 124.104 459.244 124.358C459.6 124.612 460.018 124.739 460.499 124.739C460.821 124.739 461.113 124.68 461.374 124.562C461.64 124.441 461.861 124.269 462.039 124.045C462.221 123.822 462.348 123.553 462.42 123.239H464.073C464.013 123.803 463.829 124.307 463.522 124.75C463.215 125.193 462.804 125.542 462.289 125.795C461.778 126.049 461.177 126.176 460.488 126.176ZM469.964 117.273V118.636H465.197V117.273H469.964ZM466.475 115.182H468.174V123.438C468.174 123.767 468.223 124.015 468.322 124.182C468.42 124.345 468.547 124.456 468.703 124.517C468.862 124.574 469.034 124.602 469.22 124.602C469.356 124.602 469.475 124.593 469.578 124.574C469.68 124.555 469.759 124.54 469.816 124.528L470.123 125.932C470.025 125.97 469.884 126.008 469.703 126.045C469.521 126.087 469.294 126.11 469.021 126.114C468.574 126.121 468.157 126.042 467.771 125.875C467.384 125.708 467.072 125.451 466.833 125.102C466.595 124.754 466.475 124.316 466.475 123.79V115.182ZM385.044 146H381.276V134.364H385.163C386.303 134.364 387.282 134.597 388.1 135.062C388.919 135.525 389.545 136.189 389.981 137.057C390.42 137.92 390.64 138.956 390.64 140.165C390.64 141.377 390.419 142.419 389.975 143.29C389.536 144.161 388.9 144.831 388.066 145.301C387.233 145.767 386.225 146 385.044 146ZM383.032 144.466H384.947C385.833 144.466 386.57 144.299 387.157 143.966C387.744 143.629 388.184 143.142 388.475 142.506C388.767 141.866 388.913 141.085 388.913 140.165C388.913 139.252 388.767 138.477 388.475 137.841C388.187 137.205 387.758 136.722 387.186 136.392C386.614 136.062 385.903 135.898 385.055 135.898H383.032V144.466ZM396.448 146.176C395.588 146.176 394.848 145.992 394.227 145.625C393.609 145.254 393.132 144.733 392.795 144.062C392.462 143.388 392.295 142.598 392.295 141.693C392.295 140.799 392.462 140.011 392.795 139.33C393.132 138.648 393.602 138.116 394.204 137.733C394.81 137.35 395.518 137.159 396.329 137.159C396.821 137.159 397.299 137.241 397.761 137.403C398.223 137.566 398.638 137.822 399.005 138.17C399.373 138.519 399.662 138.972 399.874 139.528C400.087 140.081 400.193 140.754 400.193 141.545V142.148H393.255V140.875H398.528C398.528 140.428 398.437 140.032 398.255 139.688C398.073 139.339 397.818 139.064 397.488 138.864C397.162 138.663 396.78 138.562 396.34 138.562C395.863 138.562 395.446 138.68 395.09 138.915C394.738 139.146 394.465 139.449 394.272 139.824C394.083 140.195 393.988 140.598 393.988 141.034V142.028C393.988 142.612 394.09 143.108 394.295 143.517C394.503 143.926 394.793 144.239 395.164 144.455C395.535 144.667 395.969 144.773 396.465 144.773C396.787 144.773 397.081 144.727 397.346 144.636C397.611 144.542 397.84 144.402 398.034 144.216C398.227 144.03 398.374 143.801 398.477 143.528L400.085 143.818C399.956 144.292 399.725 144.706 399.392 145.062C399.062 145.415 398.647 145.689 398.147 145.886C397.651 146.08 397.085 146.176 396.448 146.176ZM409.294 137.273L406.129 146H404.311L401.14 137.273H402.964L405.174 143.989H405.265L407.47 137.273H409.294ZM414.355 146.176C413.495 146.176 412.754 145.992 412.133 145.625C411.516 145.254 411.038 144.733 410.701 144.062C410.368 143.388 410.201 142.598 410.201 141.693C410.201 140.799 410.368 140.011 410.701 139.33C411.038 138.648 411.508 138.116 412.11 137.733C412.716 137.35 413.425 137.159 414.235 137.159C414.728 137.159 415.205 137.241 415.667 137.403C416.129 137.566 416.544 137.822 416.911 138.17C417.279 138.519 417.569 138.972 417.781 139.528C417.993 140.081 418.099 140.754 418.099 141.545V142.148H411.161V140.875H416.434C416.434 140.428 416.343 140.032 416.161 139.688C415.98 139.339 415.724 139.064 415.394 138.864C415.069 138.663 414.686 138.562 414.247 138.562C413.769 138.562 413.353 138.68 412.997 138.915C412.644 139.146 412.372 139.449 412.178 139.824C411.989 140.195 411.894 140.598 411.894 141.034V142.028C411.894 142.612 411.997 143.108 412.201 143.517C412.41 143.926 412.699 144.239 413.07 144.455C413.442 144.667 413.875 144.773 414.372 144.773C414.694 144.773 414.987 144.727 415.252 144.636C415.517 144.542 415.747 144.402 415.94 144.216C416.133 144.03 416.281 143.801 416.383 143.528L417.991 143.818C417.862 144.292 417.631 144.706 417.298 145.062C416.968 145.415 416.553 145.689 416.053 145.886C415.557 146.08 414.991 146.176 414.355 146.176ZM421.683 134.364V146H419.984V134.364H421.683ZM427.644 146.176C426.826 146.176 426.112 145.989 425.502 145.614C424.892 145.239 424.419 144.714 424.082 144.04C423.745 143.366 423.576 142.578 423.576 141.676C423.576 140.771 423.745 139.979 424.082 139.301C424.419 138.623 424.892 138.097 425.502 137.722C426.112 137.347 426.826 137.159 427.644 137.159C428.463 137.159 429.177 137.347 429.786 137.722C430.396 138.097 430.87 138.623 431.207 139.301C431.544 139.979 431.713 140.771 431.713 141.676C431.713 142.578 431.544 143.366 431.207 144.04C430.87 144.714 430.396 145.239 429.786 145.614C429.177 145.989 428.463 146.176 427.644 146.176ZM427.65 144.75C428.18 144.75 428.62 144.61 428.968 144.33C429.317 144.049 429.574 143.676 429.741 143.21C429.911 142.744 429.997 142.231 429.997 141.67C429.997 141.114 429.911 140.602 429.741 140.136C429.574 139.667 429.317 139.29 428.968 139.006C428.62 138.722 428.18 138.58 427.65 138.58C427.116 138.58 426.673 138.722 426.32 139.006C425.972 139.29 425.713 139.667 425.542 140.136C425.375 140.602 425.292 141.114 425.292 141.67C425.292 142.231 425.375 142.744 425.542 143.21C425.713 143.676 425.972 144.049 426.32 144.33C426.673 144.61 427.116 144.75 427.65 144.75ZM433.609 149.273V137.273H435.268V138.688H435.41C435.508 138.506 435.651 138.295 435.836 138.057C436.022 137.818 436.279 137.61 436.609 137.432C436.938 137.25 437.374 137.159 437.916 137.159C438.62 137.159 439.249 137.337 439.802 137.693C440.355 138.049 440.789 138.562 441.103 139.233C441.421 139.903 441.58 140.71 441.58 141.653C441.58 142.597 441.423 143.405 441.109 144.08C440.794 144.75 440.363 145.267 439.813 145.631C439.264 145.991 438.637 146.17 437.933 146.17C437.402 146.17 436.969 146.081 436.632 145.903C436.298 145.725 436.037 145.517 435.847 145.278C435.658 145.04 435.512 144.828 435.41 144.642H435.308V149.273H433.609ZM435.274 141.636C435.274 142.25 435.363 142.788 435.541 143.25C435.719 143.712 435.976 144.074 436.313 144.335C436.651 144.593 437.063 144.722 437.552 144.722C438.06 144.722 438.484 144.587 438.825 144.318C439.166 144.045 439.423 143.676 439.597 143.21C439.776 142.744 439.865 142.22 439.865 141.636C439.865 141.061 439.777 140.544 439.603 140.085C439.433 139.627 439.175 139.265 438.83 139C438.49 138.735 438.063 138.602 437.552 138.602C437.06 138.602 436.643 138.729 436.302 138.983C435.965 139.237 435.709 139.591 435.535 140.045C435.361 140.5 435.274 141.03 435.274 141.636ZM443.484 146V137.273H445.115V138.693H445.222C445.404 138.212 445.702 137.837 446.115 137.568C446.527 137.295 447.022 137.159 447.597 137.159C448.181 137.159 448.669 137.295 449.063 137.568C449.461 137.841 449.755 138.216 449.944 138.693H450.035C450.243 138.227 450.575 137.856 451.029 137.58C451.484 137.299 452.026 137.159 452.654 137.159C453.446 137.159 454.092 137.407 454.592 137.903C455.096 138.4 455.347 139.148 455.347 140.148V146H453.649V140.307C453.649 139.716 453.488 139.288 453.166 139.023C452.844 138.758 452.459 138.625 452.012 138.625C451.459 138.625 451.029 138.795 450.722 139.136C450.416 139.473 450.262 139.907 450.262 140.438V146H448.569V140.199C448.569 139.725 448.421 139.345 448.126 139.057C447.83 138.769 447.446 138.625 446.972 138.625C446.651 138.625 446.353 138.71 446.08 138.881C445.811 139.047 445.594 139.28 445.427 139.58C445.264 139.879 445.183 140.225 445.183 140.619V146H443.484ZM461.386 146.176C460.526 146.176 459.785 145.992 459.164 145.625C458.547 145.254 458.07 144.733 457.732 144.062C457.399 143.388 457.232 142.598 457.232 141.693C457.232 140.799 457.399 140.011 457.732 139.33C458.07 138.648 458.539 138.116 459.142 137.733C459.748 137.35 460.456 137.159 461.267 137.159C461.759 137.159 462.236 137.241 462.698 137.403C463.16 137.566 463.575 137.822 463.943 138.17C464.31 138.519 464.6 138.972 464.812 139.528C465.024 140.081 465.13 140.754 465.13 141.545V142.148H458.193V140.875H463.465C463.465 140.428 463.374 140.032 463.193 139.688C463.011 139.339 462.755 139.064 462.426 138.864C462.1 138.663 461.717 138.562 461.278 138.562C460.801 138.562 460.384 138.68 460.028 138.915C459.676 139.146 459.403 139.449 459.21 139.824C459.02 140.195 458.926 140.598 458.926 141.034V142.028C458.926 142.612 459.028 143.108 459.232 143.517C459.441 143.926 459.731 144.239 460.102 144.455C460.473 144.667 460.907 144.773 461.403 144.773C461.725 144.773 462.018 144.727 462.284 144.636C462.549 144.542 462.778 144.402 462.971 144.216C463.164 144.03 463.312 143.801 463.414 143.528L465.022 143.818C464.893 144.292 464.662 144.706 464.329 145.062C463.999 145.415 463.585 145.689 463.085 145.886C462.588 146.08 462.022 146.176 461.386 146.176ZM468.714 140.818V146H467.015V137.273H468.646V138.693H468.754C468.954 138.231 469.269 137.86 469.697 137.58C470.129 137.299 470.672 137.159 471.328 137.159C471.922 137.159 472.443 137.284 472.89 137.534C473.337 137.78 473.684 138.148 473.93 138.636C474.176 139.125 474.299 139.729 474.299 140.449V146H472.6V140.653C472.6 140.021 472.436 139.527 472.106 139.17C471.776 138.811 471.324 138.631 470.748 138.631C470.354 138.631 470.004 138.716 469.697 138.886C469.394 139.057 469.153 139.307 468.975 139.636C468.801 139.962 468.714 140.356 468.714 140.818ZM480.651 137.273V138.636H475.884V137.273H480.651ZM477.163 135.182H478.862V143.438C478.862 143.767 478.911 144.015 479.009 144.182C479.108 144.345 479.235 144.456 479.39 144.517C479.549 144.574 479.722 144.602 479.907 144.602C480.044 144.602 480.163 144.593 480.265 144.574C480.367 144.555 480.447 144.54 480.504 144.528L480.811 145.932C480.712 145.97 480.572 146.008 480.39 146.045C480.208 146.087 479.981 146.11 479.708 146.114C479.261 146.121 478.845 146.042 478.458 145.875C478.072 145.708 477.759 145.451 477.521 145.102C477.282 144.754 477.163 144.316 477.163 143.79V135.182Z" fill="white"/>
<g filter="url(#filter2_f_312_370)">
<rect x="264.693" y="70.0002" width="14" height="150" fill="url(#paint1_linear_312_370)"/>
</g>
<path d="M214.799 83.529C214.799 75.797 221.067 69.529 228.799 69.529H265.16V146.215H228.799C221.067 146.215 214.799 139.947 214.799 132.215V83.529Z" fill="#202947"/>
<g filter="url(#filter3_di_312_370)">
<path d="M266.115 146.308C226.386 146.308 214.295 122.629 214.295 108.191V232.066C214.295 239.246 220.115 245.066 227.295 245.066H389.573C396.753 245.066 402.573 239.246 402.573 232.066V159.308C402.573 152.129 396.753 146.308 389.574 146.308H266.115Z" fill="#93C5FD"/>
</g>
<path d="M286.585 177.965H284.812C284.744 177.586 284.617 177.253 284.431 176.965C284.246 176.677 284.018 176.433 283.749 176.232C283.481 176.031 283.179 175.88 282.846 175.778C282.517 175.675 282.166 175.624 281.795 175.624C281.124 175.624 280.524 175.793 279.994 176.13C279.467 176.467 279.051 176.961 278.744 177.613C278.441 178.264 278.289 179.06 278.289 179.999C278.289 180.946 278.441 181.745 278.744 182.397C279.051 183.048 279.469 183.541 279.999 183.874C280.53 184.207 281.126 184.374 281.789 184.374C282.157 184.374 282.505 184.325 282.835 184.226C283.168 184.124 283.469 183.975 283.738 183.778C284.007 183.581 284.234 183.34 284.42 183.056C284.609 182.768 284.74 182.439 284.812 182.067L286.585 182.073C286.49 182.645 286.306 183.171 286.034 183.653C285.765 184.13 285.418 184.543 284.994 184.891C284.573 185.236 284.092 185.503 283.551 185.692C283.009 185.882 282.418 185.976 281.778 185.976C280.77 185.976 279.873 185.738 279.085 185.261C278.297 184.779 277.676 184.092 277.221 183.198C276.77 182.304 276.545 181.238 276.545 179.999C276.545 178.757 276.772 177.69 277.227 176.8C277.681 175.906 278.303 175.221 279.09 174.743C279.878 174.262 280.774 174.022 281.778 174.022C282.395 174.022 282.971 174.111 283.505 174.289C284.043 174.463 284.526 174.721 284.954 175.062C285.382 175.399 285.736 175.812 286.017 176.3C286.297 176.785 286.486 177.34 286.585 177.965ZM290.248 174.181V185.817H288.549V174.181H290.248ZM296.21 185.993C295.392 185.993 294.678 185.806 294.068 185.431C293.458 185.056 292.984 184.531 292.647 183.857C292.31 183.183 292.142 182.395 292.142 181.493C292.142 180.588 292.31 179.796 292.647 179.118C292.984 178.44 293.458 177.914 294.068 177.539C294.678 177.164 295.392 176.976 296.21 176.976C297.028 176.976 297.742 177.164 298.352 177.539C298.962 177.914 299.435 178.44 299.772 179.118C300.109 179.796 300.278 180.588 300.278 181.493C300.278 182.395 300.109 183.183 299.772 183.857C299.435 184.531 298.962 185.056 298.352 185.431C297.742 185.806 297.028 185.993 296.21 185.993ZM296.215 184.567C296.746 184.567 297.185 184.427 297.534 184.147C297.882 183.867 298.14 183.493 298.306 183.028C298.477 182.562 298.562 182.048 298.562 181.488C298.562 180.931 298.477 180.42 298.306 179.954C298.14 179.484 297.882 179.107 297.534 178.823C297.185 178.539 296.746 178.397 296.215 178.397C295.681 178.397 295.238 178.539 294.886 178.823C294.537 179.107 294.278 179.484 294.107 179.954C293.941 180.42 293.857 180.931 293.857 181.488C293.857 182.048 293.941 182.562 294.107 183.028C294.278 183.493 294.537 183.867 294.886 184.147C295.238 184.427 295.681 184.567 296.215 184.567ZM307.703 182.198V177.09H309.407V185.817H307.737V184.306H307.646C307.445 184.772 307.123 185.16 306.68 185.471C306.241 185.778 305.693 185.931 305.038 185.931C304.477 185.931 303.981 185.808 303.549 185.562C303.121 185.312 302.784 184.942 302.538 184.454C302.295 183.965 302.174 183.361 302.174 182.641V177.09H303.873V182.437C303.873 183.031 304.038 183.505 304.367 183.857C304.697 184.209 305.125 184.386 305.651 184.386C305.97 184.386 306.286 184.306 306.6 184.147C306.919 183.988 307.182 183.747 307.39 183.425C307.602 183.103 307.706 182.694 307.703 182.198ZM314.957 185.988C314.252 185.988 313.624 185.808 313.071 185.448C312.521 185.084 312.089 184.567 311.775 183.897C311.464 183.223 311.309 182.414 311.309 181.471C311.309 180.528 311.466 179.721 311.781 179.05C312.099 178.38 312.535 177.867 313.088 177.511C313.641 177.154 314.267 176.976 314.968 176.976C315.51 176.976 315.946 177.067 316.275 177.249C316.608 177.427 316.866 177.636 317.048 177.874C317.233 178.113 317.377 178.323 317.48 178.505H317.582V174.181H319.281V185.817H317.622V184.459H317.48C317.377 184.645 317.23 184.857 317.036 185.096C316.847 185.334 316.586 185.543 316.252 185.721C315.919 185.899 315.487 185.988 314.957 185.988ZM315.332 184.539C315.821 184.539 316.233 184.41 316.571 184.153C316.911 183.891 317.169 183.529 317.343 183.067C317.521 182.605 317.61 182.067 317.61 181.454C317.61 180.848 317.523 180.317 317.349 179.863C317.175 179.408 316.919 179.054 316.582 178.8C316.245 178.546 315.828 178.42 315.332 178.42C314.821 178.42 314.394 178.552 314.053 178.817C313.713 179.082 313.455 179.444 313.281 179.903C313.11 180.361 313.025 180.878 313.025 181.454C313.025 182.037 313.112 182.562 313.286 183.028C313.461 183.493 313.718 183.863 314.059 184.136C314.404 184.404 314.828 184.539 315.332 184.539ZM327.059 185.817H325.196L329.383 174.181H331.411L335.599 185.817H333.735L330.446 176.295H330.355L327.059 185.817ZM327.372 181.261H333.417V182.738H327.372V181.261ZM339.035 174.181V185.817H337.279V174.181H339.035ZM269.473 194.181V205.817H267.717V194.181H269.473ZM273.592 200.636V205.817H271.893V197.09H273.524V198.511H273.632C273.832 198.048 274.147 197.677 274.575 197.397C275.007 197.117 275.55 196.976 276.205 196.976C276.8 196.976 277.321 197.101 277.768 197.351C278.215 197.598 278.562 197.965 278.808 198.454C279.054 198.942 279.177 199.546 279.177 200.266V205.817H277.478V200.471C277.478 199.838 277.313 199.344 276.984 198.988C276.654 198.628 276.202 198.448 275.626 198.448C275.232 198.448 274.882 198.533 274.575 198.704C274.272 198.874 274.031 199.124 273.853 199.454C273.679 199.779 273.592 200.173 273.592 200.636ZM285.529 197.09V198.454H280.762V197.09H285.529ZM282.041 194.999H283.74V203.255C283.74 203.584 283.789 203.832 283.887 203.999C283.986 204.162 284.113 204.274 284.268 204.334C284.427 204.391 284.599 204.42 284.785 204.42C284.921 204.42 285.041 204.41 285.143 204.391C285.245 204.372 285.325 204.357 285.382 204.346L285.688 205.749C285.59 205.787 285.45 205.825 285.268 205.863C285.086 205.904 284.859 205.927 284.586 205.931C284.139 205.939 283.723 205.859 283.336 205.692C282.95 205.526 282.637 205.268 282.399 204.92C282.16 204.571 282.041 204.134 282.041 203.607V194.999ZM291.076 205.993C290.216 205.993 289.476 205.81 288.855 205.442C288.237 205.071 287.76 204.55 287.423 203.88C287.089 203.206 286.923 202.416 286.923 201.511C286.923 200.617 287.089 199.829 287.423 199.147C287.76 198.465 288.23 197.933 288.832 197.55C289.438 197.168 290.146 196.976 290.957 196.976C291.449 196.976 291.927 197.058 292.389 197.221C292.851 197.384 293.266 197.639 293.633 197.988C294 198.336 294.29 198.789 294.502 199.346C294.714 199.899 294.821 200.571 294.821 201.363V201.965H287.883V200.692H293.156C293.156 200.245 293.065 199.85 292.883 199.505C292.701 199.156 292.446 198.882 292.116 198.681C291.79 198.48 291.408 198.38 290.968 198.38C290.491 198.38 290.074 198.497 289.718 198.732C289.366 198.963 289.093 199.266 288.9 199.641C288.711 200.012 288.616 200.416 288.616 200.851V201.846C288.616 202.429 288.718 202.925 288.923 203.334C289.131 203.743 289.421 204.056 289.792 204.272C290.163 204.484 290.597 204.59 291.093 204.59C291.415 204.59 291.709 204.545 291.974 204.454C292.239 204.359 292.468 204.219 292.661 204.033C292.855 203.848 293.002 203.618 293.105 203.346L294.713 203.636C294.584 204.109 294.353 204.524 294.019 204.88C293.69 205.232 293.275 205.507 292.775 205.704C292.279 205.897 291.713 205.993 291.076 205.993ZM296.705 205.817V197.09H298.348V198.476H298.438C298.598 198.007 298.878 197.637 299.279 197.368C299.685 197.096 300.143 196.959 300.654 196.959C300.76 196.959 300.885 196.963 301.029 196.971C301.177 196.978 301.293 196.988 301.376 196.999V198.624C301.308 198.605 301.187 198.584 301.012 198.562C300.838 198.535 300.664 198.522 300.49 198.522C300.088 198.522 299.73 198.607 299.416 198.778C299.105 198.944 298.859 199.177 298.677 199.476C298.495 199.772 298.404 200.109 298.404 200.488V205.817H296.705ZM306.193 209.272C305.499 209.272 304.903 209.181 304.403 208.999C303.907 208.817 303.501 208.577 303.187 208.278C302.873 207.978 302.638 207.651 302.482 207.295L303.943 206.692C304.045 206.859 304.181 207.035 304.352 207.221C304.526 207.41 304.761 207.571 305.056 207.704C305.356 207.836 305.74 207.903 306.21 207.903C306.854 207.903 307.386 207.745 307.806 207.431C308.227 207.12 308.437 206.624 308.437 205.942V204.226H308.329C308.227 204.412 308.079 204.618 307.886 204.846C307.696 205.073 307.435 205.27 307.102 205.437C306.768 205.603 306.335 205.687 305.801 205.687C305.111 205.687 304.49 205.526 303.937 205.204C303.388 204.878 302.952 204.399 302.63 203.766C302.312 203.13 302.153 202.348 302.153 201.42C302.153 200.492 302.31 199.696 302.624 199.033C302.943 198.37 303.378 197.863 303.931 197.511C304.484 197.154 305.111 196.976 305.812 196.976C306.354 196.976 306.791 197.067 307.124 197.249C307.458 197.427 307.717 197.636 307.903 197.874C308.092 198.113 308.238 198.323 308.34 198.505H308.465V197.09H310.13V206.011C310.13 206.761 309.956 207.376 309.607 207.857C309.259 208.338 308.787 208.694 308.193 208.925C307.602 209.156 306.935 209.272 306.193 209.272ZM306.176 204.278C306.664 204.278 307.077 204.164 307.414 203.937C307.755 203.706 308.013 203.376 308.187 202.948C308.365 202.516 308.454 201.999 308.454 201.397C308.454 200.81 308.367 200.293 308.193 199.846C308.018 199.399 307.763 199.05 307.426 198.8C307.089 198.546 306.672 198.42 306.176 198.42C305.664 198.42 305.238 198.552 304.897 198.817C304.556 199.079 304.299 199.435 304.124 199.886C303.954 200.336 303.869 200.84 303.869 201.397C303.869 201.969 303.956 202.471 304.13 202.903C304.304 203.334 304.562 203.671 304.903 203.914C305.248 204.156 305.672 204.278 306.176 204.278ZM314.948 206.011C314.395 206.011 313.895 205.908 313.448 205.704C313.001 205.495 312.647 205.194 312.386 204.8C312.128 204.406 311.999 203.923 311.999 203.351C311.999 202.859 312.094 202.454 312.284 202.136C312.473 201.817 312.729 201.565 313.051 201.38C313.373 201.194 313.732 201.054 314.13 200.959C314.528 200.865 314.933 200.793 315.346 200.743C315.869 200.683 316.293 200.634 316.619 200.596C316.945 200.554 317.181 200.488 317.329 200.397C317.477 200.306 317.551 200.158 317.551 199.954V199.914C317.551 199.418 317.41 199.033 317.13 198.761C316.854 198.488 316.441 198.351 315.892 198.351C315.32 198.351 314.869 198.478 314.539 198.732C314.214 198.982 313.988 199.261 313.863 199.567L312.267 199.204C312.456 198.673 312.732 198.245 313.096 197.92C313.464 197.59 313.886 197.351 314.363 197.204C314.84 197.052 315.342 196.976 315.869 196.976C316.217 196.976 316.587 197.018 316.977 197.101C317.371 197.181 317.738 197.329 318.079 197.545C318.424 197.761 318.706 198.069 318.926 198.471C319.145 198.868 319.255 199.386 319.255 200.022V205.817H317.596V204.624H317.528C317.418 204.844 317.253 205.06 317.034 205.272C316.814 205.484 316.532 205.66 316.187 205.8C315.842 205.94 315.429 206.011 314.948 206.011ZM315.318 204.647C315.787 204.647 316.189 204.554 316.522 204.368C316.859 204.183 317.115 203.94 317.289 203.641C317.467 203.338 317.556 203.014 317.556 202.67V201.545C317.496 201.605 317.378 201.662 317.204 201.715C317.034 201.764 316.839 201.808 316.619 201.846C316.399 201.88 316.185 201.912 315.977 201.942C315.768 201.969 315.594 201.992 315.454 202.011C315.124 202.052 314.823 202.122 314.551 202.221C314.282 202.319 314.066 202.461 313.903 202.647C313.744 202.829 313.664 203.071 313.664 203.374C313.664 203.795 313.82 204.113 314.13 204.329C314.441 204.541 314.837 204.647 315.318 204.647ZM325.592 197.09V198.454H320.825V197.09H325.592ZM322.103 194.999H323.802V203.255C323.802 203.584 323.851 203.832 323.95 203.999C324.048 204.162 324.175 204.274 324.33 204.334C324.49 204.391 324.662 204.42 324.848 204.42C324.984 204.42 325.103 204.41 325.205 204.391C325.308 204.372 325.387 204.357 325.444 204.346L325.751 205.749C325.652 205.787 325.512 205.825 325.33 205.863C325.149 205.904 324.921 205.927 324.649 205.931C324.202 205.939 323.785 205.859 323.399 205.692C323.012 205.526 322.7 205.268 322.461 204.92C322.223 204.571 322.103 204.134 322.103 203.607V194.999ZM327.471 205.817V197.09H329.17V205.817H327.471ZM328.329 195.743C328.034 195.743 327.78 195.645 327.568 195.448C327.359 195.247 327.255 195.009 327.255 194.732C327.255 194.452 327.359 194.213 327.568 194.016C327.78 193.815 328.034 193.715 328.329 193.715C328.624 193.715 328.876 193.815 329.085 194.016C329.297 194.213 329.403 194.452 329.403 194.732C329.403 195.009 329.297 195.247 329.085 195.448C328.876 195.645 328.624 195.743 328.329 195.743ZM335.132 205.993C334.313 205.993 333.599 205.806 332.99 205.431C332.38 205.056 331.906 204.531 331.569 203.857C331.232 203.183 331.063 202.395 331.063 201.493C331.063 200.588 331.232 199.796 331.569 199.118C331.906 198.44 332.38 197.914 332.99 197.539C333.599 197.164 334.313 196.976 335.132 196.976C335.95 196.976 336.664 197.164 337.274 197.539C337.883 197.914 338.357 198.44 338.694 199.118C339.031 199.796 339.2 200.588 339.2 201.493C339.2 202.395 339.031 203.183 338.694 203.857C338.357 204.531 337.883 205.056 337.274 205.431C336.664 205.806 335.95 205.993 335.132 205.993ZM335.137 204.567C335.668 204.567 336.107 204.427 336.455 204.147C336.804 203.867 337.062 203.493 337.228 203.028C337.399 202.562 337.484 202.048 337.484 201.488C337.484 200.931 337.399 200.42 337.228 199.954C337.062 199.484 336.804 199.107 336.455 198.823C336.107 198.539 335.668 198.397 335.137 198.397C334.603 198.397 334.16 198.539 333.808 198.823C333.459 199.107 333.2 199.484 333.029 199.954C332.863 200.42 332.779 200.931 332.779 201.488C332.779 202.048 332.863 202.562 333.029 203.028C333.2 203.493 333.459 203.867 333.808 204.147C334.16 204.427 334.603 204.567 335.137 204.567ZM342.795 200.636V205.817H341.096V197.09H342.727V198.511H342.835C343.035 198.048 343.35 197.677 343.778 197.397C344.21 197.117 344.753 196.976 345.409 196.976C346.003 196.976 346.524 197.101 346.971 197.351C347.418 197.598 347.765 197.965 348.011 198.454C348.257 198.942 348.38 199.546 348.38 200.266V205.817H346.681V200.471C346.681 199.838 346.517 199.344 346.187 198.988C345.857 198.628 345.405 198.448 344.829 198.448C344.435 198.448 344.085 198.533 343.778 198.704C343.475 198.874 343.234 199.124 343.056 199.454C342.882 199.779 342.795 200.173 342.795 200.636Z" fill="white"/>
<g filter="url(#filter4_f_312_370)">
<rect x="156.695" y="143" width="14" height="150" fill="url(#paint2_linear_312_370)"/>
</g>
<path d="M106.805 156.782C106.805 149.05 113.073 142.781 120.805 142.781H157.166V219.467H120.805C113.073 219.467 106.805 213.199 106.805 205.467V156.782Z" fill="#282C4B" fill-opacity="0.63"/>
<g filter="url(#filter5_di_312_370)">
<path d="M158.525 219.561C118.796 219.561 106.705 195.882 106.705 181.444V305.319C106.705 312.499 112.525 318.319 119.705 318.319H281.984C289.163 318.319 294.984 312.499 294.984 305.319V232.561C294.984 225.381 289.163 219.561 281.984 219.561H158.525Z" fill="#282C4B"/>
</g>
<path d="M151.304 273V259.909H156.098C157.027 259.909 157.797 260.062 158.406 260.369C159.015 260.672 159.471 261.083 159.774 261.603C160.076 262.119 160.228 262.7 160.228 263.348C160.228 263.893 160.128 264.354 159.927 264.729C159.727 265.099 159.459 265.398 159.122 265.624C158.79 265.845 158.423 266.007 158.022 266.109V266.237C158.457 266.259 158.881 266.399 159.294 266.659C159.712 266.915 160.057 267.279 160.33 267.752C160.603 268.225 160.739 268.8 160.739 269.478C160.739 270.147 160.581 270.748 160.266 271.281C159.955 271.809 159.473 272.229 158.821 272.54C158.169 272.847 157.336 273 156.322 273H151.304ZM153.28 271.306H156.13C157.076 271.306 157.754 271.123 158.163 270.756C158.572 270.39 158.777 269.932 158.777 269.382C158.777 268.969 158.672 268.589 158.464 268.244C158.255 267.899 157.956 267.624 157.569 267.42C157.185 267.215 156.729 267.113 156.201 267.113H153.28V271.306ZM153.28 265.572H155.926C156.369 265.572 156.767 265.487 157.121 265.317C157.479 265.146 157.763 264.908 157.971 264.601C158.184 264.29 158.291 263.923 158.291 263.501C158.291 262.96 158.101 262.506 157.722 262.14C157.343 261.773 156.761 261.59 155.977 261.59H153.28V265.572ZM164.84 259.909V273H162.928V259.909H164.84ZM171.546 273.198C170.626 273.198 169.823 272.987 169.137 272.565C168.451 272.143 167.918 271.553 167.539 270.795C167.159 270.036 166.97 269.15 166.97 268.136C166.97 267.117 167.159 266.227 167.539 265.464C167.918 264.701 168.451 264.109 169.137 263.687C169.823 263.265 170.626 263.054 171.546 263.054C172.467 263.054 173.27 263.265 173.956 263.687C174.642 264.109 175.175 264.701 175.554 265.464C175.934 266.227 176.123 267.117 176.123 268.136C176.123 269.15 175.934 270.036 175.554 270.795C175.175 271.553 174.642 272.143 173.956 272.565C173.27 272.987 172.467 273.198 171.546 273.198ZM171.553 271.594C172.149 271.594 172.644 271.436 173.036 271.121C173.428 270.805 173.718 270.386 173.905 269.862C174.097 269.337 174.193 268.76 174.193 268.129C174.193 267.503 174.097 266.928 173.905 266.403C173.718 265.875 173.428 265.451 173.036 265.131C172.644 264.812 172.149 264.652 171.553 264.652C170.952 264.652 170.453 264.812 170.057 265.131C169.665 265.451 169.373 265.875 169.181 266.403C168.994 266.928 168.9 267.503 168.9 268.129C168.9 268.76 168.994 269.337 169.181 269.862C169.373 270.386 169.665 270.805 170.057 271.121C170.453 271.436 170.952 271.594 171.553 271.594ZM182.392 273.198C181.442 273.198 180.624 272.983 179.938 272.553C179.256 272.118 178.732 271.519 178.365 270.756C177.999 269.994 177.815 269.12 177.815 268.136C177.815 267.138 178.003 266.259 178.378 265.496C178.753 264.729 179.281 264.13 179.963 263.7C180.645 263.269 181.448 263.054 182.373 263.054C183.119 263.054 183.783 263.192 184.367 263.469C184.951 263.742 185.422 264.126 185.78 264.62C186.142 265.114 186.357 265.692 186.426 266.352H184.565C184.463 265.892 184.229 265.496 183.862 265.163C183.5 264.831 183.014 264.665 182.405 264.665C181.872 264.665 181.406 264.805 181.005 265.087C180.609 265.364 180.3 265.76 180.078 266.276C179.857 266.787 179.746 267.392 179.746 268.091C179.746 268.807 179.854 269.425 180.072 269.945C180.289 270.464 180.596 270.867 180.992 271.153C181.393 271.438 181.864 271.581 182.405 271.581C182.767 271.581 183.095 271.515 183.389 271.383C183.688 271.246 183.937 271.053 184.137 270.801C184.342 270.55 184.484 270.247 184.565 269.893H186.426C186.357 270.528 186.151 271.095 185.805 271.594C185.46 272.092 184.998 272.484 184.418 272.77C183.843 273.055 183.168 273.198 182.392 273.198ZM190.227 269.67L190.214 267.337H190.547L194.459 263.182H196.747L192.285 267.912H191.985L190.227 269.67ZM188.469 273V259.909H190.381V273H188.469ZM194.67 273L191.154 268.334L192.471 266.998L197.016 273H194.67ZM214.279 264.166H212.285C212.208 263.74 212.065 263.365 211.856 263.041C211.647 262.717 211.392 262.442 211.089 262.217C210.787 261.991 210.448 261.82 210.073 261.705C209.702 261.59 209.308 261.533 208.89 261.533C208.136 261.533 207.461 261.722 206.864 262.102C206.272 262.481 205.803 263.037 205.458 263.77C205.117 264.503 204.946 265.398 204.946 266.455C204.946 267.52 205.117 268.419 205.458 269.152C205.803 269.885 206.274 270.439 206.87 270.814C207.467 271.189 208.138 271.376 208.884 271.376C209.297 271.376 209.689 271.321 210.06 271.21C210.435 271.095 210.774 270.927 211.076 270.705C211.379 270.484 211.635 270.213 211.843 269.893C212.057 269.57 212.204 269.199 212.285 268.781L214.279 268.788C214.172 269.431 213.966 270.023 213.659 270.565C213.356 271.102 212.966 271.566 212.489 271.958C212.016 272.346 211.475 272.646 210.866 272.859C210.256 273.072 209.591 273.179 208.871 273.179C207.738 273.179 206.728 272.911 205.841 272.374C204.955 271.832 204.256 271.059 203.745 270.053C203.238 269.048 202.984 267.848 202.984 266.455C202.984 265.057 203.24 263.857 203.751 262.856C204.263 261.85 204.961 261.079 205.848 260.542C206.734 260.001 207.742 259.73 208.871 259.73C209.566 259.73 210.214 259.83 210.814 260.031C211.419 260.227 211.963 260.516 212.444 260.9C212.926 261.279 213.324 261.744 213.64 262.293C213.955 262.839 214.168 263.463 214.279 264.166ZM218.4 267.17V273H216.489V259.909H218.375V264.78H218.496C218.726 264.251 219.078 263.832 219.551 263.521C220.024 263.21 220.642 263.054 221.404 263.054C222.078 263.054 222.666 263.192 223.169 263.469C223.676 263.746 224.068 264.16 224.345 264.71C224.626 265.255 224.767 265.937 224.767 266.755V273H222.855V266.985C222.855 266.265 222.67 265.707 222.299 265.31C221.929 264.91 221.413 264.71 220.752 264.71C220.301 264.71 219.896 264.805 219.538 264.997C219.184 265.189 218.905 265.47 218.701 265.841C218.5 266.207 218.4 266.651 218.4 267.17ZM230.174 273.217C229.552 273.217 228.99 273.102 228.487 272.872C227.984 272.638 227.585 272.299 227.291 271.856C227.002 271.413 226.857 270.869 226.857 270.226C226.857 269.672 226.963 269.216 227.176 268.858C227.389 268.5 227.677 268.217 228.039 268.008C228.402 267.799 228.806 267.641 229.254 267.535C229.701 267.428 230.157 267.347 230.622 267.292C231.21 267.224 231.687 267.168 232.054 267.126C232.42 267.079 232.686 267.004 232.853 266.902C233.019 266.8 233.102 266.634 233.102 266.403V266.359C233.102 265.8 232.944 265.368 232.629 265.061C232.318 264.754 231.853 264.601 231.235 264.601C230.592 264.601 230.085 264.744 229.714 265.029C229.348 265.31 229.094 265.624 228.953 265.969L227.157 265.56C227.37 264.963 227.681 264.482 228.09 264.115C228.504 263.744 228.979 263.476 229.516 263.31C230.053 263.139 230.617 263.054 231.21 263.054C231.602 263.054 232.017 263.101 232.456 263.195C232.899 263.284 233.313 263.45 233.696 263.693C234.084 263.936 234.402 264.283 234.649 264.735C234.896 265.183 235.019 265.764 235.019 266.48V273H233.153V271.658H233.076C232.953 271.905 232.767 272.148 232.52 272.386C232.273 272.625 231.956 272.823 231.568 272.981C231.18 273.138 230.715 273.217 230.174 273.217ZM230.59 271.683C231.118 271.683 231.57 271.579 231.945 271.37C232.324 271.161 232.612 270.888 232.808 270.552C233.008 270.211 233.108 269.847 233.108 269.459V268.193C233.04 268.261 232.908 268.325 232.712 268.385C232.52 268.44 232.301 268.489 232.054 268.532C231.806 268.57 231.566 268.607 231.331 268.641C231.097 268.67 230.901 268.696 230.743 268.717C230.372 268.764 230.034 268.843 229.727 268.954C229.424 269.065 229.181 269.224 228.998 269.433C228.819 269.638 228.73 269.911 228.73 270.251C228.73 270.724 228.904 271.082 229.254 271.325C229.603 271.564 230.049 271.683 230.59 271.683ZM237.565 273V263.182H239.476V273H237.565ZM238.53 261.667C238.198 261.667 237.912 261.556 237.674 261.335C237.439 261.109 237.322 260.84 237.322 260.529C237.322 260.214 237.439 259.945 237.674 259.724C237.912 259.498 238.198 259.385 238.53 259.385C238.863 259.385 239.146 259.498 239.38 259.724C239.619 259.945 239.738 260.214 239.738 260.529C239.738 260.84 239.619 261.109 239.38 261.335C239.146 261.556 238.863 261.667 238.53 261.667ZM243.959 267.17V273H242.047V263.182H243.882V264.78H244.003C244.229 264.26 244.583 263.842 245.065 263.527C245.55 263.212 246.162 263.054 246.899 263.054C247.568 263.054 248.154 263.195 248.657 263.476C249.16 263.753 249.55 264.166 249.827 264.716C250.104 265.266 250.242 265.945 250.242 266.755V273H248.331V266.985C248.331 266.273 248.146 265.717 247.775 265.317C247.404 264.912 246.895 264.71 246.247 264.71C245.804 264.71 245.41 264.805 245.065 264.997C244.724 265.189 244.453 265.47 244.253 265.841C244.057 266.207 243.959 266.651 243.959 267.17Z" fill="white"/>
<g filter="url(#filter6_f_312_370)">
<rect x="53.6934" y="213" width="14" height="150" fill="url(#paint3_linear_312_370)"/>
</g>
<path d="M3.69336 226.6C3.69336 218.868 9.96137 212.6 17.6934 212.6H54.0542V289.286H17.6934C9.96139 289.286 3.69336 283.018 3.69336 275.286V226.6Z" fill="#202947"/>
<g filter="url(#filter7_di_312_370)">
<path d="M55.8198 289.632C16.0913 289.632 4 265.953 4 251.515V375.39C4 382.57 9.82032 388.39 17 388.39H179.279C186.458 388.39 192.279 382.57 192.279 375.39V302.632C192.279 295.452 186.458 289.632 179.279 289.632H55.8198Z" fill="#93C5FD"/>
</g>
<path d="M42.2013 326.8C42.0777 326.412 41.9115 326.065 41.7027 325.758C41.4982 325.447 41.2531 325.183 40.9676 324.965C40.6821 324.744 40.3561 324.576 39.9896 324.461C39.6274 324.345 39.229 324.288 38.7943 324.288C38.0571 324.288 37.3923 324.478 36.8 324.857C36.2077 325.236 35.7389 325.792 35.3938 326.525C35.0528 327.254 34.8824 328.147 34.8824 329.203C34.8824 330.264 35.055 331.161 35.4002 331.894C35.7453 332.627 36.2183 333.184 36.8192 333.563C37.42 333.942 38.104 334.132 38.871 334.132C39.5827 334.132 40.2027 333.987 40.7311 333.697C41.2638 333.407 41.675 332.998 41.9648 332.47C42.2588 331.937 42.4058 331.311 42.4058 330.59L42.9172 330.686H39.1715V329.056H44.3171V330.546C44.3171 331.645 44.0827 332.6 43.6139 333.409C43.1494 334.215 42.506 334.837 41.6835 335.276C40.8653 335.715 39.9278 335.934 38.871 335.934C37.6864 335.934 36.6466 335.661 35.7517 335.116C34.8611 334.571 34.1665 333.797 33.6679 332.796C33.1693 331.79 32.92 330.597 32.92 329.216C32.92 328.172 33.0649 327.235 33.3547 326.404C33.6445 325.573 34.0514 324.867 34.5756 324.288C35.104 323.704 35.724 323.259 36.4357 322.952C37.1516 322.641 37.9335 322.485 38.7815 322.485C39.4889 322.485 40.1473 322.59 40.7567 322.799C41.3703 323.007 41.9158 323.304 42.393 323.687C42.8746 324.071 43.273 324.527 43.5884 325.055C43.9037 325.579 44.1168 326.161 44.2276 326.8H42.2013ZM50.9025 335.953C49.9351 335.953 49.102 335.747 48.4032 335.333C47.7086 334.916 47.1716 334.33 46.7924 333.576C46.4174 332.817 46.2299 331.929 46.2299 330.91C46.2299 329.904 46.4174 329.018 46.7924 328.251C47.1716 327.484 47.7 326.885 48.3776 326.455C49.0594 326.024 49.8563 325.809 50.7682 325.809C51.3222 325.809 51.8591 325.901 52.379 326.084C52.8989 326.267 53.3655 326.555 53.7789 326.947C54.1922 327.339 54.5182 327.848 54.7569 328.475C54.9955 329.097 55.1148 329.853 55.1148 330.744V331.421H47.3101V329.99H53.2419C53.2419 329.487 53.1397 329.041 52.9351 328.654C52.7306 328.262 52.4429 327.953 52.0722 327.727C51.7057 327.501 51.2753 327.388 50.781 327.388C50.2441 327.388 49.7753 327.52 49.3748 327.784C48.9785 328.044 48.6716 328.385 48.4543 328.807C48.2412 329.225 48.1347 329.679 48.1347 330.169V331.287C48.1347 331.943 48.2498 332.502 48.4799 332.962C48.7142 333.422 49.0402 333.774 49.4579 334.017C49.8755 334.255 50.3634 334.375 50.9216 334.375C51.2839 334.375 51.6141 334.323 51.9124 334.221C52.2107 334.115 52.4685 333.957 52.6858 333.748C52.9032 333.539 53.0694 333.282 53.1844 332.975L54.9934 333.301C54.8485 333.833 54.5885 334.3 54.2135 334.701C53.8428 335.097 53.3762 335.406 52.8137 335.627C52.2554 335.845 51.6184 335.953 50.9025 335.953ZM59.1466 329.926V335.755H57.2354V325.937H59.0699V327.535H59.1913C59.4172 327.015 59.7709 326.598 60.2524 326.282C60.7382 325.967 61.3497 325.809 62.0869 325.809C62.756 325.809 63.3419 325.95 63.8448 326.231C64.3476 326.508 64.7375 326.921 65.0145 327.471C65.2915 328.021 65.43 328.701 65.43 329.51V335.755H63.5188V329.74C63.5188 329.029 63.3334 328.473 62.9627 328.072C62.5919 327.667 62.0827 327.465 61.435 327.465C60.9918 327.465 60.5976 327.561 60.2524 327.752C59.9115 327.944 59.6409 328.225 59.4406 328.596C59.2446 328.963 59.1466 329.406 59.1466 329.926ZM72.2247 335.953C71.2574 335.953 70.4243 335.747 69.7254 335.333C69.0308 334.916 68.4939 334.33 68.1146 333.576C67.7396 332.817 67.5521 331.929 67.5521 330.91C67.5521 329.904 67.7396 329.018 68.1146 328.251C68.4939 327.484 69.0223 326.885 69.6999 326.455C70.3817 326.024 71.1786 325.809 72.0905 325.809C72.6445 325.809 73.1814 325.901 73.7013 326.084C74.2212 326.267 74.6878 326.555 75.1011 326.947C75.5145 327.339 75.8405 327.848 76.0791 328.475C76.3178 329.097 76.4371 329.853 76.4371 330.744V331.421H68.6324V329.99H74.5642C74.5642 329.487 74.4619 329.041 74.2574 328.654C74.0528 328.262 73.7652 327.953 73.3945 327.727C73.028 327.501 72.5976 327.388 72.1033 327.388C71.5663 327.388 71.0976 327.52 70.697 327.784C70.3007 328.044 69.9939 328.385 69.7766 328.807C69.5635 329.225 69.457 329.679 69.457 330.169V331.287C69.457 331.943 69.572 332.502 69.8021 332.962C70.0365 333.422 70.3625 333.774 70.7801 334.017C71.1977 334.255 71.6857 334.375 72.2439 334.375C72.6061 334.375 72.9364 334.323 73.2347 334.221C73.533 334.115 73.7908 333.957 74.0081 333.748C74.2254 333.539 74.3916 333.282 74.5067 332.975L76.3156 333.301C76.1707 333.833 75.9108 334.3 75.5358 334.701C75.1651 335.097 74.6984 335.406 74.1359 335.627C73.5777 335.845 72.9406 335.953 72.2247 335.953ZM78.5576 335.755V325.937H80.4049V327.497H80.5072C80.6862 326.968 81.0015 326.553 81.4532 326.25C81.9092 325.943 82.4248 325.79 83.0001 325.79C83.1194 325.79 83.2601 325.794 83.422 325.803C83.5882 325.811 83.7182 325.822 83.8119 325.835V327.663C83.7352 327.642 83.5988 327.618 83.4028 327.593C83.2068 327.563 83.0108 327.548 82.8147 327.548C82.363 327.548 81.9603 327.644 81.6066 327.836C81.2572 328.023 80.9802 328.285 80.7757 328.622C80.5711 328.954 80.4689 329.333 80.4689 329.76V335.755H78.5576ZM88.2352 335.973C87.613 335.973 87.0505 335.858 86.5477 335.627C86.0449 335.393 85.6464 335.054 85.3524 334.611C85.0626 334.168 84.9177 333.625 84.9177 332.981C84.9177 332.427 85.0243 331.971 85.2373 331.613C85.4504 331.255 85.738 330.972 86.1003 330.763C86.4625 330.554 86.8673 330.397 87.3147 330.29C87.7622 330.184 88.2182 330.103 88.6826 330.047C89.2707 329.979 89.748 329.924 90.1145 329.881C90.4809 329.834 90.7473 329.76 90.9135 329.657C91.0797 329.555 91.1628 329.389 91.1628 329.159V329.114C91.1628 328.556 91.0051 328.123 90.6897 327.816C90.3787 327.51 89.9142 327.356 89.2963 327.356C88.6528 327.356 88.1457 327.499 87.775 327.784C87.4085 328.066 87.1549 328.379 87.0143 328.724L85.2182 328.315C85.4312 327.718 85.7423 327.237 86.1514 326.87C86.5647 326.5 87.0399 326.231 87.5768 326.065C88.1138 325.894 88.6784 325.809 89.2707 325.809C89.6628 325.809 90.0782 325.856 90.5172 325.95C90.9603 326.039 91.3737 326.206 91.7572 326.448C92.145 326.691 92.4625 327.039 92.7096 327.49C92.9568 327.938 93.0804 328.519 93.0804 329.235V335.755H91.2139V334.413H91.1372C91.0136 334.66 90.8282 334.903 90.5811 335.142C90.3339 335.38 90.0165 335.578 89.6287 335.736C89.2409 335.894 88.7764 335.973 88.2352 335.973ZM88.6507 334.438C89.1791 334.438 89.6308 334.334 90.0058 334.125C90.3851 333.916 90.6727 333.644 90.8687 333.307C91.069 332.966 91.1691 332.602 91.1691 332.214V330.948C91.101 331.017 90.9689 331.081 90.7728 331.14C90.5811 331.196 90.3616 331.245 90.1145 331.287C89.8673 331.326 89.6265 331.362 89.3922 331.396C89.1578 331.426 88.9618 331.451 88.8041 331.473C88.4334 331.519 88.0946 331.598 87.7878 331.709C87.4852 331.82 87.2423 331.98 87.0591 332.188C86.8801 332.393 86.7906 332.666 86.7906 333.007C86.7906 333.48 86.9653 333.838 87.3147 334.081C87.6642 334.319 88.1095 334.438 88.6507 334.438ZM100.209 325.937V327.471H94.8462V325.937H100.209ZM96.2844 323.585H98.1956V332.872C98.1956 333.243 98.251 333.522 98.3618 333.71C98.4726 333.893 98.6153 334.019 98.7901 334.087C98.969 334.151 99.1629 334.183 99.3717 334.183C99.5252 334.183 99.6594 334.172 99.7744 334.151C99.8895 334.13 99.979 334.112 100.043 334.1L100.388 335.679C100.277 335.721 100.12 335.764 99.9151 335.806C99.7105 335.853 99.4548 335.879 99.148 335.883C98.6452 335.892 98.1764 335.802 97.7418 335.615C97.3071 335.427 96.9555 335.137 96.6871 334.745C96.4186 334.353 96.2844 333.861 96.2844 333.269V323.585ZM102.323 335.755V325.937H104.234V335.755H102.323ZM103.288 324.422C102.956 324.422 102.671 324.311 102.432 324.09C102.198 323.864 102.08 323.595 102.08 323.284C102.08 322.969 102.198 322.701 102.432 322.479C102.671 322.253 102.956 322.14 103.288 322.14C103.621 322.14 103.904 322.253 104.139 322.479C104.377 322.701 104.497 322.969 104.497 323.284C104.497 323.595 104.377 323.864 104.139 324.09C103.904 324.311 103.621 324.422 103.288 324.422ZM115.205 325.937L111.644 335.755H109.599L106.032 325.937H108.084L110.571 333.492H110.673L113.153 325.937H115.205ZM120.899 335.953C119.931 335.953 119.098 335.747 118.399 335.333C117.705 334.916 117.168 334.33 116.788 333.576C116.413 332.817 116.226 331.929 116.226 330.91C116.226 329.904 116.413 329.018 116.788 328.251C117.168 327.484 117.696 326.885 118.374 326.455C119.056 326.024 119.852 325.809 120.764 325.809C121.318 325.809 121.855 325.901 122.375 326.084C122.895 326.267 123.362 326.555 123.775 326.947C124.188 327.339 124.514 327.848 124.753 328.475C124.992 329.097 125.111 329.853 125.111 330.744V331.421H117.306V329.99H123.238C123.238 329.487 123.136 329.041 122.931 328.654C122.727 328.262 122.439 327.953 122.068 327.727C121.702 327.501 121.271 327.388 120.777 327.388C120.24 327.388 119.771 327.52 119.371 327.784C118.975 328.044 118.668 328.385 118.45 328.807C118.237 329.225 118.131 329.679 118.131 330.169V331.287C118.131 331.943 118.246 332.502 118.476 332.962C118.71 333.422 119.036 333.774 119.454 334.017C119.872 334.255 120.359 334.375 120.918 334.375C121.28 334.375 121.61 334.323 121.908 334.221C122.207 334.115 122.465 333.957 122.682 333.748C122.899 333.539 123.065 333.282 123.181 332.975L124.989 333.301C124.845 333.833 124.585 334.3 124.21 334.701C123.839 335.097 123.372 335.406 122.81 335.627C122.252 335.845 121.614 335.953 120.899 335.953ZM133.254 335.755H131.158L135.869 322.664H138.151L142.862 335.755H140.765L137.064 325.042H136.962L133.254 335.755ZM133.606 330.629H140.407V332.291H133.606V330.629ZM144.687 335.755V325.937H146.598V335.755H144.687ZM145.652 324.422C145.319 324.422 145.034 324.311 144.795 324.09C144.561 323.864 144.444 323.595 144.444 323.284C144.444 322.969 144.561 322.701 144.795 322.479C145.034 322.253 145.319 322.14 145.652 322.14C145.984 322.14 146.268 322.253 146.502 322.479C146.741 322.701 146.86 322.969 146.86 323.284C146.86 323.595 146.741 323.864 146.502 324.09C146.268 324.311 145.984 324.422 145.652 324.422ZM157.742 335.941C156.864 335.941 156.108 335.781 155.473 335.461C154.842 335.142 154.357 334.707 154.016 334.157C153.675 333.603 153.504 332.977 153.504 332.278C153.504 331.745 153.615 331.272 153.837 330.859C154.058 330.441 154.367 330.056 154.764 329.702C155.16 329.348 155.618 328.992 156.138 328.635L158.247 327.145C158.605 326.911 158.884 326.664 159.085 326.404C159.285 326.139 159.385 325.813 159.385 325.426C159.385 325.119 159.253 324.825 158.989 324.544C158.725 324.262 158.371 324.122 157.928 324.122C157.621 324.122 157.35 324.196 157.116 324.345C156.886 324.495 156.705 324.686 156.573 324.921C156.445 325.151 156.381 325.394 156.381 325.649C156.381 325.948 156.462 326.248 156.624 326.551C156.79 326.853 157.003 327.166 157.263 327.49C157.523 327.81 157.796 328.142 158.081 328.487L164.16 335.755H161.999L156.969 329.843C156.547 329.344 156.155 328.875 155.793 328.436C155.431 327.993 155.136 327.546 154.911 327.094C154.689 326.638 154.578 326.146 154.578 325.617C154.578 325.017 154.715 324.484 154.987 324.019C155.264 323.551 155.65 323.184 156.144 322.92C156.639 322.656 157.218 322.524 157.883 322.524C158.556 322.524 159.134 322.656 159.615 322.92C160.101 323.18 160.474 323.527 160.734 323.962C160.998 324.392 161.13 324.863 161.13 325.375C161.13 325.997 160.975 326.546 160.663 327.024C160.357 327.497 159.933 327.931 159.391 328.328L156.764 330.264C156.253 330.639 155.897 331.01 155.697 331.377C155.501 331.739 155.403 332.022 155.403 332.227C155.403 332.602 155.499 332.949 155.69 333.269C155.886 333.588 156.159 333.844 156.509 334.036C156.862 334.228 157.276 334.323 157.749 334.323C158.234 334.323 158.708 334.219 159.168 334.01C159.632 333.797 160.052 333.492 160.427 333.096C160.806 332.7 161.107 332.225 161.328 331.671C161.55 331.117 161.661 330.497 161.661 329.811H163.386C163.386 330.654 163.291 331.368 163.099 331.952C162.907 332.532 162.675 333.005 162.402 333.371C162.134 333.733 161.88 334.017 161.641 334.221C161.565 334.289 161.492 334.358 161.424 334.426C161.356 334.494 161.283 334.562 161.207 334.63C160.764 335.078 160.227 335.408 159.596 335.621C158.97 335.834 158.352 335.941 157.742 335.941ZM56.6393 342.664V355.755H54.6642V342.664H56.6393ZM61.2736 349.926V355.755H59.3623V345.937H61.1968V347.535H61.3183C61.5441 347.015 61.8978 346.598 62.3794 346.282C62.8652 345.967 63.4767 345.809 64.2139 345.809C64.8829 345.809 65.4689 345.95 65.9717 346.231C66.4745 346.508 66.8645 346.921 67.1415 347.471C67.4184 348.021 67.5569 348.701 67.5569 349.51V355.755H65.6457V349.74C65.6457 349.029 65.4603 348.473 65.0896 348.072C64.7189 347.667 64.2096 347.465 63.5619 347.465C63.1187 347.465 62.7245 347.561 62.3794 347.752C62.0385 347.944 61.7679 348.225 61.5676 348.596C61.3716 348.963 61.2736 349.406 61.2736 349.926ZM72.0314 349.926V355.755H70.1201V345.937H71.9547V347.535H72.0761C72.302 347.015 72.6557 346.598 73.1372 346.282C73.623 345.967 74.2345 345.809 74.9717 345.809C75.6407 345.809 76.2267 345.95 76.7295 346.231C77.2324 346.508 77.6223 346.921 77.8993 347.471C78.1763 348.021 78.3147 348.701 78.3147 349.51V355.755H76.4035V349.74C76.4035 349.029 76.2182 348.473 75.8474 348.072C75.4767 347.667 74.9674 347.465 74.3197 347.465C73.8765 347.465 73.4824 347.561 73.1372 347.752C72.7963 347.944 72.5257 348.225 72.3254 348.596C72.1294 348.963 72.0314 349.406 72.0314 349.926ZM85.0136 355.953C84.0932 355.953 83.2899 355.742 82.6038 355.321C81.9177 354.899 81.3851 354.309 81.0058 353.55C80.6265 352.791 80.4369 351.905 80.4369 350.891C80.4369 349.872 80.6265 348.982 81.0058 348.219C81.3851 347.456 81.9177 346.864 82.6038 346.442C83.2899 346.02 84.0932 345.809 85.0136 345.809C85.9341 345.809 86.7373 346.02 87.4234 346.442C88.1095 346.864 88.6422 347.456 89.0214 348.219C89.4007 348.982 89.5903 349.872 89.5903 350.891C89.5903 351.905 89.4007 352.791 89.0214 353.55C88.6422 354.309 88.1095 354.899 87.4234 355.321C86.7373 355.742 85.9341 355.953 85.0136 355.953ZM85.02 354.349C85.6166 354.349 86.1109 354.191 86.503 353.876C86.895 353.561 87.1848 353.141 87.3723 352.617C87.564 352.093 87.6599 351.515 87.6599 350.885C87.6599 350.258 87.564 349.683 87.3723 349.159C87.1848 348.63 86.895 348.206 86.503 347.887C86.1109 347.567 85.6166 347.407 85.02 347.407C84.4191 347.407 83.9206 347.567 83.5243 347.887C83.1322 348.206 82.8403 348.63 82.6486 349.159C82.4611 349.683 82.3673 350.258 82.3673 350.885C82.3673 351.515 82.4611 352.093 82.6486 352.617C82.8403 353.141 83.1322 353.561 83.5243 353.876C83.9206 354.191 84.4191 354.349 85.02 354.349ZM99.7888 345.937L96.2285 355.755H94.183L90.6162 345.937H92.6681L95.1546 353.492H95.2569L97.737 345.937H99.7888ZM104.161 355.973C103.539 355.973 102.976 355.858 102.473 355.627C101.971 355.393 101.572 355.054 101.278 354.611C100.988 354.168 100.844 353.625 100.844 352.981C100.844 352.427 100.95 351.971 101.163 351.613C101.376 351.255 101.664 350.972 102.026 350.763C102.388 350.554 102.793 350.397 103.241 350.29C103.688 350.184 104.144 350.103 104.608 350.047C105.196 349.979 105.674 349.924 106.04 349.881C106.407 349.834 106.673 349.76 106.839 349.657C107.005 349.555 107.089 349.389 107.089 349.159V349.114C107.089 348.556 106.931 348.123 106.616 347.816C106.304 347.51 105.84 347.356 105.222 347.356C104.579 347.356 104.071 347.499 103.701 347.784C103.334 348.066 103.081 348.379 102.94 348.724L101.144 348.315C101.357 347.718 101.668 347.237 102.077 346.87C102.491 346.5 102.966 346.231 103.503 346.065C104.04 345.894 104.604 345.809 105.196 345.809C105.589 345.809 106.004 345.856 106.443 345.95C106.886 346.039 107.299 346.206 107.683 346.448C108.071 346.691 108.388 347.039 108.635 347.49C108.883 347.938 109.006 348.519 109.006 349.235V355.755H107.14V354.413H107.063C106.939 354.66 106.754 354.903 106.507 355.142C106.26 355.38 105.942 355.578 105.554 355.736C105.167 355.894 104.702 355.973 104.161 355.973ZM104.576 354.438C105.105 354.438 105.557 354.334 105.932 354.125C106.311 353.916 106.598 353.644 106.795 353.307C106.995 352.966 107.095 352.602 107.095 352.214V350.948C107.027 351.017 106.895 351.081 106.699 351.14C106.507 351.196 106.287 351.245 106.04 351.287C105.793 351.326 105.552 351.362 105.318 351.396C105.084 351.426 104.888 351.451 104.73 351.473C104.359 351.519 104.02 351.598 103.714 351.709C103.411 351.82 103.168 351.98 102.985 352.188C102.806 352.393 102.716 352.666 102.716 353.007C102.716 353.48 102.891 353.838 103.241 354.081C103.59 354.319 104.035 354.438 104.576 354.438ZM116.135 345.937V347.471H110.772V345.937H116.135ZM112.21 343.585H114.121V352.872C114.121 353.243 114.177 353.522 114.288 353.71C114.398 353.893 114.541 354.019 114.716 354.087C114.895 354.151 115.089 354.183 115.298 354.183C115.451 354.183 115.585 354.172 115.7 354.151C115.815 354.13 115.905 354.112 115.969 354.1L116.314 355.679C116.203 355.721 116.045 355.764 115.841 355.806C115.636 355.853 115.381 355.879 115.074 355.883C114.571 355.892 114.102 355.802 113.668 355.615C113.233 355.427 112.881 355.137 112.613 354.745C112.344 354.353 112.21 353.861 112.21 353.269V343.585ZM118.249 355.755V345.937H120.16V355.755H118.249ZM119.214 344.422C118.882 344.422 118.596 344.311 118.358 344.09C118.123 343.864 118.006 343.595 118.006 343.284C118.006 342.969 118.123 342.701 118.358 342.479C118.596 342.253 118.882 342.14 119.214 342.14C119.547 342.14 119.83 342.253 120.064 342.479C120.303 342.701 120.422 342.969 120.422 343.284C120.422 343.595 120.303 343.864 120.064 344.09C119.83 344.311 119.547 344.422 119.214 344.422ZM126.867 355.953C125.947 355.953 125.143 355.742 124.457 355.321C123.771 354.899 123.239 354.309 122.859 353.55C122.48 352.791 122.29 351.905 122.29 350.891C122.29 349.872 122.48 348.982 122.859 348.219C123.239 347.456 123.771 346.864 124.457 346.442C125.143 346.02 125.947 345.809 126.867 345.809C127.788 345.809 128.591 346.02 129.277 346.442C129.963 346.864 130.496 347.456 130.875 348.219C131.254 348.982 131.444 349.872 131.444 350.891C131.444 351.905 131.254 352.791 130.875 353.55C130.496 354.309 129.963 354.899 129.277 355.321C128.591 355.742 127.788 355.953 126.867 355.953ZM126.874 354.349C127.47 354.349 127.964 354.191 128.356 353.876C128.749 353.561 129.038 353.141 129.226 352.617C129.418 352.093 129.513 351.515 129.513 350.885C129.513 350.258 129.418 349.683 129.226 349.159C129.038 348.63 128.749 348.206 128.356 347.887C127.964 347.567 127.47 347.407 126.874 347.407C126.273 347.407 125.774 347.567 125.378 347.887C124.986 348.206 124.694 348.63 124.502 349.159C124.315 349.683 124.221 350.258 124.221 350.885C124.221 351.515 124.315 352.093 124.502 352.617C124.694 353.141 124.986 353.561 125.378 353.876C125.774 354.191 126.273 354.349 126.874 354.349ZM135.488 349.926V355.755H133.577V345.937H135.412V347.535H135.533C135.759 347.015 136.113 346.598 136.594 346.282C137.08 345.967 137.692 345.809 138.429 345.809C139.098 345.809 139.684 345.95 140.187 346.231C140.689 346.508 141.079 346.921 141.356 347.471C141.633 348.021 141.772 348.701 141.772 349.51V355.755H139.861V349.74C139.861 349.029 139.675 348.473 139.304 348.072C138.934 347.667 138.424 347.465 137.777 347.465C137.334 347.465 136.939 347.561 136.594 347.752C136.253 347.944 135.983 348.225 135.782 348.596C135.586 348.963 135.488 349.406 135.488 349.926Z" fill="white"/>
<defs>
<filter id="filter0_f_312_370" x="370.693" y="0" width="18" height="154" filterUnits="userSpaceOnUse" color-interpolation-filters="sRGB">
<feFlood flood-opacity="0" result="BackgroundImageFix"/>
<feBlend mode="normal" in="SourceGraphic" in2="BackgroundImageFix" result="shape"/>
<feGaussianBlur stdDeviation="1" result="effect1_foregroundBlur_312_370"/>
</filter>
<filter id="filter1_di_312_370" x="318.121" y="36.6619" width="196.279" height="144.875" filterUnits="userSpaceOnUse" color-interpolation-filters="sRGB">
<feFlood flood-opacity="0" result="BackgroundImageFix"/>
<feColorMatrix in="SourceAlpha" type="matrix" values="0 0 0 0 0 0 0 0 0 0 0 0 0 0 0 0 0 0 127 0" result="hardAlpha"/>
<feOffset/>
<feGaussianBlur stdDeviation="2"/>
<feComposite in2="hardAlpha" operator="out"/>
<feColorMatrix type="matrix" values="0 0 0 0 1 0 0 0 0 1 0 0 0 0 1 0 0 0 0.25 0"/>
<feBlend mode="normal" in2="BackgroundImageFix" result="effect1_dropShadow_312_370"/>
<feBlend mode="normal" in="SourceGraphic" in2="effect1_dropShadow_312_370" result="shape"/>
<feColorMatrix in="SourceAlpha" type="matrix" values="0 0 0 0 0 0 0 0 0 0 0 0 0 0 0 0 0 0 127 0" result="hardAlpha"/>
<feOffset dy="2"/>
<feGaussianBlur stdDeviation="2"/>
<feComposite in2="hardAlpha" operator="arithmetic" k2="-1" k3="1"/>
<feColorMatrix type="matrix" values="0 0 0 0 1 0 0 0 0 1 0 0 0 0 1 0 0 0 0.25 0"/>
<feBlend mode="normal" in2="shape" result="effect2_innerShadow_312_370"/>
</filter>
<filter id="filter2_f_312_370" x="262.693" y="68.0002" width="18" height="154" filterUnits="userSpaceOnUse" color-interpolation-filters="sRGB">
<feFlood flood-opacity="0" result="BackgroundImageFix"/>
<feBlend mode="normal" in="SourceGraphic" in2="BackgroundImageFix" result="shape"/>
<feGaussianBlur stdDeviation="1" result="effect1_foregroundBlur_312_370"/>
</filter>
<filter id="filter3_di_312_370" x="210.295" y="104.191" width="196.279" height="144.875" filterUnits="userSpaceOnUse" color-interpolation-filters="sRGB">
<feFlood flood-opacity="0" result="BackgroundImageFix"/>
<feColorMatrix in="SourceAlpha" type="matrix" values="0 0 0 0 0 0 0 0 0 0 0 0 0 0 0 0 0 0 127 0" result="hardAlpha"/>
<feOffset/>
<feGaussianBlur stdDeviation="2"/>
<feComposite in2="hardAlpha" operator="out"/>
<feColorMatrix type="matrix" values="0 0 0 0 1 0 0 0 0 1 0 0 0 0 1 0 0 0 0.25 0"/>
<feBlend mode="normal" in2="BackgroundImageFix" result="effect1_dropShadow_312_370"/>
<feBlend mode="normal" in="SourceGraphic" in2="effect1_dropShadow_312_370" result="shape"/>
<feColorMatrix in="SourceAlpha" type="matrix" values="0 0 0 0 0 0 0 0 0 0 0 0 0 0 0 0 0 0 127 0" result="hardAlpha"/>
<feOffset dy="2"/>
<feGaussianBlur stdDeviation="2"/>
<feComposite in2="hardAlpha" operator="arithmetic" k2="-1" k3="1"/>
<feColorMatrix type="matrix" values="0 0 0 0 1 0 0 0 0 1 0 0 0 0 1 0 0 0 0.25 0"/>
<feBlend mode="normal" in2="shape" result="effect2_innerShadow_312_370"/>
</filter>
<filter id="filter4_f_312_370" x="154.695" y="141" width="18" height="154" filterUnits="userSpaceOnUse" color-interpolation-filters="sRGB">
<feFlood flood-opacity="0" result="BackgroundImageFix"/>
<feBlend mode="normal" in="SourceGraphic" in2="BackgroundImageFix" result="shape"/>
<feGaussianBlur stdDeviation="1" result="effect1_foregroundBlur_312_370"/>
</filter>
<filter id="filter5_di_312_370" x="102.705" y="177.444" width="196.279" height="144.875" filterUnits="userSpaceOnUse" color-interpolation-filters="sRGB">
<feFlood flood-opacity="0" result="BackgroundImageFix"/>
<feColorMatrix in="SourceAlpha" type="matrix" values="0 0 0 0 0 0 0 0 0 0 0 0 0 0 0 0 0 0 127 0" result="hardAlpha"/>
<feOffset/>
<feGaussianBlur stdDeviation="2"/>
<feComposite in2="hardAlpha" operator="out"/>
<feColorMatrix type="matrix" values="0 0 0 0 1 0 0 0 0 1 0 0 0 0 1 0 0 0 0.25 0"/>
<feBlend mode="normal" in2="BackgroundImageFix" result="effect1_dropShadow_312_370"/>
<feBlend mode="normal" in="SourceGraphic" in2="effect1_dropShadow_312_370" result="shape"/>
<feColorMatrix in="SourceAlpha" type="matrix" values="0 0 0 0 0 0 0 0 0 0 0 0 0 0 0 0 0 0 127 0" result="hardAlpha"/>
<feOffset dy="2"/>
<feGaussianBlur stdDeviation="2"/>
<feComposite in2="hardAlpha" operator="arithmetic" k2="-1" k3="1"/>
<feColorMatrix type="matrix" values="0 0 0 0 1 0 0 0 0 1 0 0 0 0 1 0 0 0 0.25 0"/>
<feBlend mode="normal" in2="shape" result="effect2_innerShadow_312_370"/>
</filter>
<filter id="filter6_f_312_370" x="51.6934" y="211" width="18" height="154" filterUnits="userSpaceOnUse" color-interpolation-filters="sRGB">
<feFlood flood-opacity="0" result="BackgroundImageFix"/>
<feBlend mode="normal" in="SourceGraphic" in2="BackgroundImageFix" result="shape"/>
<feGaussianBlur stdDeviation="1" result="effect1_foregroundBlur_312_370"/>
</filter>
<filter id="filter7_di_312_370" x="0" y="247.515" width="196.279" height="144.875" filterUnits="userSpaceOnUse" color-interpolation-filters="sRGB">
<feFlood flood-opacity="0" result="BackgroundImageFix"/>
<feColorMatrix in="SourceAlpha" type="matrix" values="0 0 0 0 0 0 0 0 0 0 0 0 0 0 0 0 0 0 127 0" result="hardAlpha"/>
<feOffset/>
<feGaussianBlur stdDeviation="2"/>
<feComposite in2="hardAlpha" operator="out"/>
<feColorMatrix type="matrix" values="0 0 0 0 1 0 0 0 0 1 0 0 0 0 1 0 0 0 0.25 0"/>
<feBlend mode="normal" in2="BackgroundImageFix" result="effect1_dropShadow_312_370"/>
<feBlend mode="normal" in="SourceGraphic" in2="effect1_dropShadow_312_370" result="shape"/>
<feColorMatrix in="SourceAlpha" type="matrix" values="0 0 0 0 0 0 0 0 0 0 0 0 0 0 0 0 0 0 127 0" result="hardAlpha"/>
<feOffset dy="2"/>
<feGaussianBlur stdDeviation="2"/>
<feComposite in2="hardAlpha" operator="arithmetic" k2="-1" k3="1"/>
<feColorMatrix type="matrix" values="0 0 0 0 1 0 0 0 0 1 0 0 0 0 1 0 0 0 0.25 0"/>
<feBlend mode="normal" in2="shape" result="effect2_innerShadow_312_370"/>
</filter>
<linearGradient id="paint0_linear_312_370" x1="372.693" y1="77.0114" x2="386.693" y2="76.9125" gradientUnits="userSpaceOnUse">
<stop stop-color="white"/>
<stop offset="0.933935" stop-opacity="0.2"/>
</linearGradient>
<linearGradient id="paint1_linear_312_370" x1="264.693" y1="145.012" x2="278.693" y2="144.913" gradientUnits="userSpaceOnUse">
<stop stop-color="white"/>
<stop offset="0.933935" stop-opacity="0.2"/>
</linearGradient>
<linearGradient id="paint2_linear_312_370" x1="156.695" y1="218.011" x2="170.695" y2="217.912" gradientUnits="userSpaceOnUse">
<stop stop-color="white"/>
<stop offset="0.933935" stop-opacity="0.2"/>
</linearGradient>
<linearGradient id="paint3_linear_312_370" x1="53.6934" y1="288.011" x2="67.6928" y2="287.912" gradientUnits="userSpaceOnUse">
<stop stop-color="white"/>
<stop offset="0.933935" stop-opacity="0.2"/>
</linearGradient>
</defs>
</svg>
